<?xml version="1.0" encoding="UTF-8"?>
<!-- Created with Inkscape (http://www.inkscape.org/) -->
<svg width="25.4mm" height="27.286mm" version="1.1" viewBox="0 0 25.4 27.286" xml:space="preserve" xmlns="http://www.w3.org/2000/svg"><g transform="translate(-4.6521 63.79)"><path d="m11.968-39.474c-2.9552-1.6371-5.3776-2.9849-5.3832-2.9951-0.015294-0.02781-1.9431-16.776-1.9323-16.787 0.00513-0.0053 2.8646-1.0277 6.3544-2.272l6.345-2.2624 6.3484 2.2634c3.4916 1.2449 6.3501 2.2647 6.3521 2.2663 0.0034 0.0027-1.9308 16.799-1.9351 16.803-0.0075 0.0076-10.738 5.9468-10.755 5.9526-0.01205 0.0042-2.3579-1.287-5.3944-2.9692zm1.1944-5.4796 0.79562-1.9898h6.7518l1.592 3.9788 1.4764 3.63e-4c1.3994 3.63e-4 1.476-9.07e-4 1.4692-0.02455-0.01174-0.04046-7.8857-17.749-7.8965-17.759-0.0083-0.0078-7.9184 17.708-7.9319 17.765-0.00385 0.0162 0.23449 0.01932 1.4716 0.01932h1.4762zm1.8752-4.4742c0.05312-0.1402 2.3053-5.5468 2.3106-5.5469 0.0053-1.3e-5 2.2607 5.4142 2.3106 5.5469 0.0089 0.02363-0.10702 0.02488-2.3106 0.02488-2.2036 0-2.3195-0.0013-2.3106-0.02488z" stroke-width=".014214"/></g></svg>
