<?xml version="1.0" encoding="UTF-8"?>
<!-- Created with Inkscape (http://www.inkscape.org/) -->
<svg width="9.2604mm" height="12.008mm" version="1.1" viewBox="0 0 9.2604 12.008" xml:space="preserve" xmlns="http://www.w3.org/2000/svg"><g transform="translate(1.4938 -32.492)"><path d="m2.9098 44.369c-0.05812-0.07271-0.20127-0.25747-0.31812-0.41057-0.28007-0.36694-2.151-2.8017-2.2779-2.9643-0.12211-0.15652-1.0299-1.3377-1.6181-2.1056-0.1616-0.21094-0.18947-0.26196-0.18947-0.34685 0-0.07744 0.01565-0.11299 0.07052-0.16019 0.12484-0.10738 0.0669-0.12415 1.4107 0.40809 1.3262 0.52526 1.7018 0.67153 1.7247 0.67153 0.01462 0 0.02372-1.3079 0.02372-3.4093v-3.4093l0.06066-0.06066c0.03336-0.03336 0.05427-0.06705 0.04645-0.07487-0.0078-0.0078 0.56401-0.01421 1.2707-0.01421 1.4047 0 1.327-8e-3 1.4061 0.14404 0.02106 0.0405 0.02878 0.96345 0.02878 3.4398 0 1.8615 0.0088 3.3845 0.01965 3.3845 0.01081 0 0.66865-0.25656 1.4619-0.57014 0.86845-0.34332 1.476-0.57014 1.5272-0.57014 0.12146 0 0.20939 0.09432 0.20939 0.22461 0 0.0936-0.09571 0.22466-1.4487 1.984-0.7968 1.0361-1.5636 2.0337-1.7041 2.217-0.14044 0.18329-0.5005 0.65306-0.80014 1.0439l-0.5448 0.71068-0.1267 9.6e-5c-0.1224 9.5e-5 -0.13028-0.0044-0.23236-0.13208z" fill="#004cff" stroke-width=".025339"/></g></svg>
