<?xml version="1.0" encoding="UTF-8"?>
<!-- Created with Inkscape (http://www.inkscape.org/) -->
<svg width="9.525mm" height="9.525mm" version="1.1" viewBox="0 0 9.525 9.525" xmlns="http://www.w3.org/2000/svg">
 <g transform="translate(-29.372 -40.318)">
  <path d="m34.134 40.318a4.7625 4.7625 0 0 0-4.7625 4.7625 4.7625 4.7625 0 0 0 4.7625 4.7625 4.7625 4.7625 0 0 0 4.7625-4.7625 4.7625 4.7625 0 0 0-4.7625-4.7625zm1.9422 1.1065c0.01766 0 0.03531 8.6e-4 0.05291 0.0025 0.0176 0.0017 0.03516 0.0043 0.05256 0.0076 0.0174 0.0034 0.03468 0.0076 0.05176 0.01269 0.01708 0.0051 0.03393 0.01097 0.05056 0.01774 0.01663 0.0068 0.03302 0.01438 0.04907 0.02283 0.01605 0.0085 0.03178 0.01778 0.04712 0.02793s0.03031 0.02113 0.04482 0.03298c0.0145 0.01184 0.02854 0.02454 0.04207 0.03807l1.1605 1.1605c0.01353 0.01353 0.02623 0.02757 0.03807 0.04207s0.02283 0.02948 0.03298 0.04482 0.01947 0.03107 0.02793 0.04712c0.0085 0.01605 0.01607 0.03243 0.02283 0.04907 0.0068 0.01663 0.01266 0.03353 0.01774 0.05061 0.0051 0.01708 0.0093 0.03436 0.01269 0.05176 0.0034 0.01741 6e-3 0.03491 0.0076 0.05251 0.0017 0.0176 0.0026 0.03525 0.0026 0.05291s-8.7e-4 0.03536-0.0026 0.05296c-0.0017 0.0176-0.0043 0.03511-0.0076 0.05251-0.0034 0.0174-0.0076 0.03468-0.01269 0.05176-0.0051 0.01708-0.01097 0.03398-0.01774 0.05061-0.0068 0.01663-0.01437 0.03302-0.02283 0.04907-0.0085 0.01605-0.01778 0.03178-0.02793 0.04712s-0.02113 0.03032-0.03298 0.04482c-0.01184 0.0145-0.02454 0.02854-0.03807 0.04207l-1.5514 1.5514 1.5514 1.5513c0.01353 0.01353 0.02623 0.02757 0.03807 0.04207s0.02283 0.02948 0.03298 0.04482 0.01947 0.03107 0.02793 0.04712c0.0085 0.01605 0.01607 0.03243 0.02283 0.04906 0.0068 0.01663 0.01266 0.03353 0.01774 0.05061 0.0051 0.01708 0.0093 0.03436 0.01269 0.05176 0.0034 0.01741 6e-3 0.03491 0.0076 0.05251 0.0017 0.0176 0.0026 0.0353 0.0026 0.05296s-8.7e-4 0.03531-0.0026 0.05291c-0.0017 0.0176-0.0043 0.03511-0.0076 0.05251-0.0034 0.01741-0.0076 0.03468-0.01269 0.05176-0.0051 0.01708-0.01097 0.03398-0.01774 0.05062-0.0068 0.01663-0.01437 0.03301-0.02283 0.04906-0.0085 0.01605-0.01778 0.03177-0.02793 0.04712-0.01015 0.01534-0.02113 0.03031-0.03298 0.04482-0.01184 0.0145-0.02454 0.02853-0.03807 0.04207l-1.1605 1.1605c-0.01353 0.01354-0.02757 0.02623-0.04207 0.03807s-0.02948 0.02283-0.04482 0.03298-0.03107 0.01947-0.04712 0.02793c-0.01605 0.0085-0.03243 0.01607-0.04907 0.02283-0.01663 0.0068-0.03348 0.01266-0.05056 0.01774-0.01708 0.0051-0.03436 0.0093-0.05176 0.01269-0.0174 0.0034-0.03496 6e-3 -0.05256 0.0076-0.0176 0.0017-0.03525 0.0026-0.05291 0.0026s-0.03532-8.7e-4 -0.05291-0.0026c-0.0176-0.0017-0.03516-0.0043-0.05256-0.0076-0.0174-0.0034-0.03468-0.0076-0.05176-0.01269-0.01708-0.0051-0.03393-0.01097-0.05056-0.01774-0.01663-0.0068-0.03302-0.01437-0.04906-0.02283-0.01605-0.0085-0.03178-0.01778-0.04712-0.02793s-0.03032-0.02113-0.04482-0.03298c-0.0145-0.01184-0.02854-0.02454-0.04207-0.03807l-1.5514-1.5514-1.5514 1.5514c-0.01353 0.01354-0.02757 0.02623-0.04207 0.03807s-0.02948 0.02283-0.04482 0.03298-0.03107 0.01947-0.04712 0.02793c-0.01605 0.0085-0.03243 0.01607-0.04907 0.02283-0.01663 0.0068-0.03353 0.01266-0.05061 0.01774-0.01708 0.0051-0.03436 0.0093-0.05176 0.01269-0.01741 0.0034-0.03491 6e-3 -0.05251 0.0076-0.0176 0.0017-0.0353 0.0026-0.05296 0.0026s-0.03531-8.7e-4 -0.05291-0.0026c-0.0176-0.0017-0.03511-0.0043-0.05251-0.0076-0.01741-0.0034-0.03468-0.0076-0.05176-0.01269-0.01708-0.0051-0.03398-0.01097-0.05061-0.01774-0.01663-0.0068-0.03301-0.01437-0.04906-0.02283-0.01605-0.0085-0.03178-0.01778-0.04712-0.02793s-0.03032-0.02113-0.04482-0.03298c-0.0145-0.01184-0.02854-0.02454-0.04207-0.03807l-1.1604-1.1605c-0.01353-0.01354-0.02623-0.02757-0.03807-0.04207s-0.02283-0.02948-0.03298-0.04482-0.01947-0.03107-0.02793-0.04712c-0.0085-0.01605-0.01607-0.03243-0.02283-0.04906-0.0068-0.01663-0.01266-0.03353-0.01774-0.05062-0.0051-0.01708-0.0093-0.03436-0.01269-0.05176-0.0034-0.0174-6e-3 -0.03491-0.0076-0.05251-0.0017-0.0176-0.0026-0.0353-0.0026-0.05296s8.7e-4 -0.03531 0.0026-0.05291c0.0017-0.0176 0.0043-0.03511 0.0076-0.05251 0.0034-0.01741 0.0076-0.03468 0.01269-0.05176 0.0051-0.01708 0.01097-0.03398 0.01774-0.05061 0.0068-0.01663 0.01438-0.03301 0.02283-0.04906 0.0085-0.01605 0.01778-0.03178 0.02793-0.04712s0.02113-0.03032 0.03298-0.04482c0.01184-0.0145 0.02454-0.02854 0.03807-0.04207l1.5514-1.5513-1.5514-1.5514c-0.01353-0.01353-0.02623-0.02757-0.03807-0.04207s-0.02283-0.02948-0.03298-0.04482-0.01947-0.03107-0.02793-0.04712c-0.0085-0.01605-0.01607-0.03243-0.02283-0.04906-0.0068-0.01663-0.01266-0.03353-0.01774-0.05061-0.0051-0.01708-0.0093-0.03436-0.01269-0.05176-0.0034-0.01741-6e-3 -0.03491-0.0076-0.05251-0.0017-0.0176-0.0026-0.03525-0.0026-0.05291s8.7e-4 -0.03536 0.0026-0.05296c0.0017-0.0176 0.0043-0.03511 0.0076-0.05251 0.0034-0.01741 0.0076-0.03468 0.01269-0.05176 0.0051-0.01708 0.01097-0.03398 0.01774-0.05061 0.0068-0.01663 0.01438-0.03301 0.02283-0.04906 0.0085-0.01605 0.01778-0.03178 0.02793-0.04712s0.02113-0.03032 0.03298-0.04482c0.01184-0.0145 0.02454-0.02854 0.03807-0.04207l1.1604-1.1605c0.01353-0.01354 0.02757-0.02623 0.04207-0.03807s0.02948-0.02283 0.04482-0.03298 0.03106-0.01947 0.04712-0.02793c0.01605-0.0085 0.03243-0.01607 0.04906-0.02283 0.01663-0.0068 0.03353-0.01266 0.05061-0.01774 0.01708-0.0051 0.03436-0.0093 0.05176-0.01269 0.01741-0.0034 0.03496-0.0059 0.05256-0.0076s0.03525-0.0025 0.05291-0.0025 0.03531 8.61e-4 0.05291 0.0025c0.0176 0.0017 0.03516 0.0042 0.05256 0.0076s0.03468 0.0076 0.05176 0.01269c0.01708 0.0051 0.03393 0.01097 0.05056 0.01774 0.01663 0.0068 0.03302 0.01438 0.04907 0.02283 0.01605 0.0085 0.03178 0.01778 0.04712 0.02793s0.03032 0.02113 0.04482 0.03298c0.0145 0.01184 0.02854 0.02454 0.04207 0.03807l1.5514 1.5514 1.5514-1.5514c0.01353-0.01354 0.02757-0.02623 0.04207-0.03807s0.02948-0.02283 0.04482-0.03298 0.03107-0.01947 0.04712-0.02793c0.01605-0.0085 0.03243-0.01607 0.04906-0.02283 0.01663-0.0068 0.03348-0.01266 0.05056-0.01774 0.01708-0.0051 0.03436-0.0093 0.05176-0.01269 0.0174-0.0034 0.03496-6e-3 0.05256-0.0076 0.0176-0.0017 0.03525-0.0025 0.05291-0.0025z" stroke-linecap="round" stroke-linejoin="round" stroke-miterlimit="55.3" stroke-width=".44689" style="paint-order:markers fill stroke"/>
 </g>
</svg>
