<?xml version="1.0" encoding="UTF-8"?>
<!-- Created with Inkscape (http://www.inkscape.org/) -->
<svg width="16.933mm" height="16.937mm" version="1.1" viewBox="0 0 16.933 16.937" xml:space="preserve" xmlns="http://www.w3.org/2000/svg"><g transform="translate(-74.89 -82.98)"><path d="m75.567 99.87c-0.2084-0.0604-0.44263-0.25203-0.5567-0.45547l-0.1088-0.19403-0.01-1.9146c-0.0064-1.2342 0.0029-1.9625 0.02634-2.0494 0.045-0.16712 0.19698-0.39621 0.33398-0.50343 0.05687-0.04451 0.18387-0.10814 0.28222-0.1414l0.17882-0.06048 0.02144-0.98146c0.01831-0.83832 0.03212-1.0208 0.09464-1.2512 0.55453-2.0436 2.705-3.1089 4.6258-2.2916 0.76687 0.32633 1.4681 1.038 1.7938 1.8206 0.19898 0.47809 0.22861 0.68101 0.25147 1.7222l0.02157 0.98146 0.17882 0.06048c0.09835 0.03327 0.22536 0.09689 0.28222 0.1414 0.137 0.10722 0.28898 0.33631 0.33398 0.50343 0.02341 0.08695 0.03276 0.81526 0.02633 2.0494l-0.01 1.9146-0.1088 0.19403c-0.11824 0.21086-0.3493 0.39537-0.57286 0.45747-0.16518 0.04588-6.9256 0.04398-7.0842-0.0018zm7.1036-0.64148 0.09781-0.09782v-3.8068l-0.19562-0.19562h-6.9112l-0.19564 0.19562v1.9005c0 1.8508 0.0018 1.9025 0.07056 1.9789 0.03881 0.04313 0.10231 0.09154 0.14111 0.10757 0.03881 0.01604 1.6061 0.02608 3.4829 0.02229l3.4123-0.0069zm-3.8357-1.0463c0-0.28748-0.0064-0.31715-0.07287-0.33825-0.11638-0.03694-0.31331-0.2277-0.38976-0.37757-0.22758-0.4461-0.0079-1.0083 0.45825-1.1725 0.58226-0.20511 1.203 0.2828 1.121 0.8811-0.03915 0.28561-0.26509 0.60093-0.47932 0.66892-0.06648 0.0211-0.07287 0.05077-0.07287 0.33825v0.31512h-0.56445zm0.47785-0.90036c0.17498-0.17499 0.05099-0.47786-0.19563-0.47786-0.14503 0-0.28222 0.13719-0.28222 0.28222 0 0.14503 0.13719 0.28222 0.28222 0.28222 0.06873 0 0.14105-0.03201 0.19563-0.08659zm-2.4528-3.5558c7.22e-4 -0.95437 0.03238-1.1585 0.24935-1.6067 0.35787-0.73935 1.1692-1.2408 2.0078-1.2408 0.57898 0 1.1656 0.24343 1.5699 0.65149 0.2825 0.28513 0.44133 0.53552 0.57424 0.90534 0.08978 0.24979 0.09347 0.2908 0.10676 1.1848l0.01376 0.92604h0.56427l-0.01622-0.96132c-0.0181-1.0725-0.03439-1.1721-0.27316-1.6696-0.35242-0.73425-1.0386-1.3026-1.834-1.519-0.31909-0.08682-1.092-0.08682-1.4111 0-0.79533 0.2164-1.4816 0.78479-1.834 1.519-0.23877 0.49747-0.25508 0.59714-0.27316 1.6696l-0.01621 0.96132h0.57113zm3.9505 0.01622c0-0.60811-0.01316-0.8545-0.05402-1.0114-0.23532-0.90345-1.1609-1.465-2.0382-1.2365-0.61177 0.15934-1.082 0.62804-1.2404 1.2365-0.04086 0.15686-0.05402 0.40325-0.05402 1.0114v0.80398h3.3867zm-2.2578-0.74825v-0.98778h0.56444v1.9756h-0.56444zm5.3622 3.8112v-0.28238l3.4899-0.0093c3.4625-0.0092 3.4907-0.0099 3.5873-0.08206 0.21127-0.15776 0.24192-0.23628 0.25483-0.65292l0.01192-0.3856h-2.3052c-1.2918 0-2.3548 0.01423-2.418 0.03233-0.06203 0.01777-0.21273 0.11347-0.33491 0.21262-0.35367 0.28702-0.50387 0.31948-1.4782 0.31948h-0.80768v-0.56445h0.79488c0.88555 0 0.94426-0.01152 1.19-0.23354 0.07752-0.07004 0.23017-0.16918 0.33921-0.2203l0.19826-0.09296 4.251-0.02022v-4.4393c0-4.9616 0.01781-4.6189-0.25455-4.8967-0.13729-0.14004-0.37751-0.25699-0.52784-0.25699-0.06183 0-0.06427 0.16609-0.06427 4.3744v4.3745h-0.56444v-4.8621c0-5.4411 0.0186-5.0554-0.25699-5.3256-0.2776-0.27216 0.05549-0.25455-4.8145-0.25455-3.264 0-4.3922 0.01052-4.4971 0.04194-0.07699 0.02307-0.21631 0.11056-0.3096 0.19444-0.29396 0.26429-0.2818 0.13731-0.2818 2.9449v2.4632h-0.56444v-1.9756c0-1.8045-5e-3 -1.9756-0.05764-1.9756-0.14446 0-0.35175 0.0966-0.50722 0.23638-0.28636 0.25746-0.2818 0.22129-0.2818 2.2394v1.7576h-0.56738l0.02056-3.7256 0.13308-0.2692c0.21016-0.42511 0.62588-0.73183 1.0665-0.78688l0.18446-0.02305 0.01803-0.31616c0.03269-0.57327 0.31561-0.99286 0.83803-1.2428l0.22931-0.10973h9.1406l0.26927 0.13308c0.51168 0.25289 0.80149 0.7288 0.80262 1.3181l3.62e-4 0.21642 0.19448 0.0243c0.41258 0.05155 0.85603 0.36527 1.0492 0.7423 0.17059 0.33287 0.16652 0.2125 0.16697 4.9477l3.62e-4 4.4538h0.19563c0.16239 0 0.21084 0.01521 0.28512 0.08948l0.08948 0.08948-0.01171 0.60725c-0.01098 0.56857-0.01759 0.61981-0.10414 0.80433-0.11748 0.25051-0.30666 0.43969-0.55717 0.55717l-0.19708 0.09242-7.0379 0.019zm-0.15875-2.5646c-0.17696-0.02149-0.75847-0.1568-0.75847-0.17649 0-0.08568 0.15697-0.50537 0.18865-0.50439 0.02236 7.23e-4 0.13591 0.02424 0.25233 0.05237 0.11642 0.0281 0.2712 0.05136 0.34396 0.05166l0.13229 3.62e-4v-0.81138h-0.84667v-0.56444h0.84667v-1.6933h-1.4188l0.01441 0.12347c0.0079 0.06791 0.01362 0.1246 0.01268 0.12598-0.0011 0.0014-0.12351 0.01361-0.27235 0.02717l-0.27061 0.02466-0.02045-0.10214c-0.05967-0.29833 3.3e-5 -1.2391 0.11737-1.8494l0.06294-0.32733-0.88625 0.0196-0.09762 0.19403c-0.05369 0.10672-0.13177 0.29722-0.1735 0.42333s-0.08165 0.23964-0.08871 0.25227c-0.01222 0.02185-0.49653-0.08904-0.5285-0.12101-0.03165-0.03165 0.19842-0.63679 0.35156-0.92466 0.59526-1.119 1.6976-1.8851 2.9662-2.0615 1.4265-0.19842 2.9294 0.46787 3.7511 1.663 0.66306 0.96444 0.87606 2.2002 0.57027 3.3086-0.16798 0.60886-0.67581 1.4444-1.1138 1.8325-0.87473 0.7752-2.0602 1.1673-3.1347 1.0368zm1.2437-0.70831c0.07528-0.09208 0.36143-0.61327 0.36143-0.6583 0-0.0116-0.19844-0.02106-0.44098-0.02106h-0.44097v0.82144l0.22049-0.0224c0.18334-0.01861 0.23389-0.03878 0.30003-0.11968zm1.1199-0.43637c0.07761-0.05464 0.1808-0.13131 0.2293-0.17038l0.08819-0.07105-0.45861-0.001445-0.06051 0.1498c-0.12002 0.29713-0.11896 0.28676-0.0242 0.23688 0.0466-0.02453 0.14822-0.0893 0.22584-0.14393zm-0.50845-0.90375c0.09224-0.24262 0.20414-0.84405 0.25939-1.3942l0.02037-0.20285h-1.4117v1.6933h1.0954zm1.4796-0.12419c0.22137-0.34785 0.39938-0.85631 0.46935-1.3406l0.01911-0.13229h-0.55845c-0.62755 0-0.60127-0.01207-0.60128 0.27629-1e-5 0.19386-0.11768 0.92772-0.19327 1.2054-0.02904 0.10672-0.05302 0.19799-0.05325 0.20285-2.46e-4 0.0048 0.17461 0.0088 0.38853 0.0088h0.38895zm-3.176-2.7428v-0.70556h-1.1938l-0.05306 0.23812c-0.05385 0.24164-0.10756 0.60228-0.1445 0.97014l-0.02037 0.20285h1.4117zm1.9558 0.50271c-0.03695-0.36786-0.09066-0.7285-0.14451-0.97014l-0.05306-0.23812h-1.1938v1.4111h1.4117zm1.6895 0.07056c-0.05987-0.41441-0.21744-0.90777-0.37179-1.1642l-0.06902-0.11465h-0.8648l0.06267 0.32619c0.03446 0.17941 0.07222 0.44531 0.0839 0.5909 0.01167 0.14559 0.02926 0.3163 0.03907 0.37936l0.01784 0.11465h1.1213zm-5.1195-2.1864c0.07202-0.1879 0.12619-0.34639 0.12037-0.35221-0.0267-0.02669-0.45673 0.28467-0.66021 0.478l-0.22611 0.21484 0.635 0.001012 0.13095-0.34163zm1.4742-0.20873v-0.55184l-0.22049 0.02239c-0.18327 0.01861-0.23395 0.03881-0.30021 0.11968-0.0823 0.10043-0.3477 0.59605-0.44409 0.82931l-0.05467 0.13229h1.0195zm1.5292 0.41954c-0.09639-0.23325-0.36179-0.72888-0.44409-0.82931-0.06627-0.08087-0.11695-0.10107-0.30022-0.11968l-0.22049-0.02239v1.1037h1.0195zm1.0492-0.08501c-0.20348-0.19334-0.63352-0.50469-0.66021-0.478-0.0058 0.0058 0.04835 0.16431 0.12037 0.35221l0.13095 0.34163 0.635-0.001011-0.22611-0.21484zm-6.5296-2.3227v-0.28222h8.4667v0.56444h-8.4667zm0-1.1289v-0.28222h0.56445v0.56445h-0.56445zm1.1289 0v-0.28222h0.56444v0.56445h-0.56444zm1.1289 0v-0.28222h0.56444v0.56445h-0.56444z" stroke-width=".035278"/></g></svg>
