<?xml version="1.0" encoding="UTF-8"?>
<!-- Created with Inkscape (http://www.inkscape.org/) -->
<svg width="25.4mm" height="18.763mm" version="1.1" viewBox="0 0 25.4 18.763" xmlns="http://www.w3.org/2000/svg">
 <g transform="translate(-2.3759 -83.184)">
  <path d="m8.9284 101.89c-2.8875-0.38244-5.6132-1.8715-6.4458-3.5213l-0.1068-0.21164 0.018306-0.57444c0.054093-1.6973 0.30077-3.5449 0.71249-5.3363 0.62342-2.7126 1.6575-5.4762 2.4799-6.6278 0.71909-1.0069 3.2779-2.089 5.6652-2.3959 0.80003-0.10285 0.92521-0.04772 1.1204 0.49334 0.04392 0.12175 0.07525 0.22596 0.06964 0.23158-0.0056 0.0056-0.18695 0.04572-0.40297 0.08911-1.4959 0.30048-2.872 0.7837-3.9892 1.4007-0.49237 0.27194-0.63018 0.38918-0.68138 0.57963-0.097677 0.36334 0.15054 0.68225 0.52889 0.67953l0.1512-0.0011 0.40812-0.23198c2.1962-1.2483 5.3864-1.8659 8.078-1.5637 1.998 0.22432 3.7404 0.74655 5.1538 1.5447 0.47994 0.27102 0.58338 0.30093 0.7804 0.22568 0.25298-0.09661 0.36656-0.28651 0.3428-0.57309-0.01865-0.22486-0.09976-0.32082-0.44131-0.52203-1.127-0.66398-2.8296-1.2837-4.2238-1.5374-0.14966-0.02724-0.30429-0.056-0.34362-0.06392l-0.07152-0.0144 0.01881-0.09407c0.03584-0.17921 0.22205-0.52066 0.32581-0.59745 0.40152-0.29713 3.1394 0.31332 4.6657 1.0403 1.1228 0.53477 1.6452 0.95405 2.0607 1.6539 1.5826 2.6656 2.971 8.1699 2.9733 11.787l3.43e-4 0.46887-0.07942 0.15093c-0.91688 1.7425-3.6907 3.209-6.7179 3.5517-0.46782 0.0529-0.56463 2e-3 -0.92191-0.48791-0.11337-0.15536-0.33446-0.45795-0.4913-0.67241-0.3224-0.44083-0.32819-0.45721-0.17179-0.48554 0.20092-0.0364 1.4324-0.45858 1.8065-0.61935 0.96675-0.41542 2.1387-1.1313 2.3333-1.4253 0.23963-0.3621-0.01337-0.82789-0.44968-0.82789h-0.17258l-0.17524 0.12729c-1.9811 1.4389-4.6029 2.1926-7.6279 2.1929-3.0994 2.29e-4 -5.7101-0.75329-7.7032-2.2235l-0.12962-0.09561-0.17482-0.0011c-0.39393-0.0025-0.6583 0.38825-0.50733 0.74956 0.21623 0.51752 2.7871 1.8205 4.1836 2.1204 0.05385 0.0116 0.10583 0.0338 0.1155 0.0495 0.0097 0.0156-0.19717 0.32412-0.45965 0.68549-0.74897 1.0312-0.68188 0.99176-1.5039 0.88289zm3.0899-6.1237c1.8426-0.61853 1.8724-3.5016 0.04365-4.2187l-0.17408-0.06826-0.36281-0.0021c-0.98221-0.0055-1.741 0.70763-1.9188 1.8034-0.25355 1.5624 1.0771 2.9337 2.412 2.4856zm7.292-0.03826c1.3794-0.58521 1.7333-2.6037 0.65003-3.7068-1.2483-1.2712-3.1962-0.26846-3.1976 1.646l-2.73e-4 0.37792 0.08132 0.27061c0.298 0.9917 0.98291 1.541 1.8921 1.5174l0.34769-9e-3 0.22675-0.0962z" stroke-width=".030234"/>
 </g>
</svg>
