<?xml version="1.0" encoding="UTF-8"?>
<!-- Created with Inkscape (http://www.inkscape.org/) -->
<svg width="25.4mm" height="18.583mm" version="1.1" viewBox="0 0 25.4 18.583" xml:space="preserve" xmlns="http://www.w3.org/2000/svg"><g transform="translate(-59.396 -110.26)"><g transform="matrix(.26448 0 0 .26448 48.608 83.803)" stroke-linecap="round" stroke-linejoin="round" stroke-miterlimit="55.3" stroke-width=".26458"><path d="m94.438 125.18v9.7896h9.7896v-9.7896h-4.8948z" style="paint-order:stroke markers fill"/><path d="m82.267 125.18v9.7896h9.7896v-9.7896h-4.8948z" style="paint-order:stroke markers fill"/><path d="m70.361 125.18v9.7896h9.7896v-9.7896h-4.8948z" style="paint-order:stroke markers fill"/><path d="m58.19 125.18v9.7896h9.7896v-9.7896h-4.8948z" style="paint-order:stroke markers fill"/><path d="m46.284 125.18v9.7896h9.7896v-9.7896h-4.8948z" style="paint-order:stroke markers fill"/><path d="m116.96 118.3c-0.43967 0-2.3915 3.1601-2.8355 4.5909-0.57176 1.8425-0.77833 5.7727-0.39945 7.5975 0.16815 0.80983 0.66115 2.2239 1.0955 3.1424 0.74495 1.5752 0.76305 1.6898 0.32194 2.0242-0.46453 0.35214-3.347 1.3793-5.627 2.005-0.90219 0.24758-9.331 0.3616-34.793 0.47129l-33.602 0.14469-0.23564 1.9844c-0.15197 1.2788-0.13206 2.9722 0.05581 4.7625 0.7321 6.9764 3.301 12.32 8.1499 16.951 4.6146 4.4077 11.079 7.2747 18.378 8.1504 3.1575 0.3788 10.845 0.1299 15.014-0.48576 14.129-2.0866 25.448-8.614 33.239-19.168 1.8759-2.5412 4.1283-6.3653 5.3067-9.0098l0.97306-2.1838 2.4221-0.14831c5.5982-0.34209 9.9175-2.8135 11.966-6.8466 0.70986-1.3975 0.72008-1.379-1.342-2.4097-2.032-1.0156-3.931-1.3379-6.9024-1.172-1.4424 0.0805-2.9349 0.22512-3.3166 0.32143-0.65692 0.16578-0.70355 0.11043-0.8754-1.0356-0.34272-2.2854-1.8778-4.8509-4.4106-7.3711-1.2796-1.2733-2.4416-2.3151-2.5828-2.3151z" style="paint-order:stroke markers fill"/><path d="m82.267 112.75v9.525h9.7896v-9.525h-4.8948z" style="paint-order:stroke markers fill"/><path d="m70.361 112.75v9.525h9.7896v-9.525h-4.8948z" style="paint-order:stroke markers fill"/><path d="m58.19 112.75v9.525h9.7896v-9.525h-4.8948z" style="paint-order:stroke markers fill"/><path d="m82.267 100.05v4.7186c0 2.5951 0.07923 4.7978 0.17622 4.8948 0.097 0.097 2.2997 0.17622 4.8948 0.17622h4.7186v-9.7896h-4.8948z" style="paint-order:stroke markers fill"/></g></g></svg>
