<?xml version="1.0" encoding="UTF-8"?>
<!-- Created with Inkscape (http://www.inkscape.org/) -->
<svg width="16.933mm" height="22.111mm" version="1.1" viewBox="0 0 16.933 22.111" xml:space="preserve" xmlns="http://www.w3.org/2000/svg"><g transform="translate(-94.248 -97.576)"><path d="m97.024 119.65c0-0.0223-0.08722-0.0547-0.19401-0.0717-0.56198-0.0898-1.4343-0.62863-1.8357-1.1338-0.25132-0.31623-0.5935-1.0007-0.68298-1.3661-0.05138-0.21011-0.06272-1.7431-0.06272-8.4667v-8.2102l0.10953-0.34869c0.25812-0.82204 0.71205-1.4366 1.4033-1.9001 0.30488-0.20436 0.79948-0.41807 1.0664-0.46075 0.10716-0.01719 0.18335-0.0495 0.16951-0.07196-0.01463-0.0232 1.6668-0.04081 3.896-0.04081 2.1566 0 3.9212 0.01774 3.9212 0.03926 0 0.0216 0.0814 0.06365 0.18084 0.09344 0.26981 0.08084 0.81298 0.45499 1.3119 0.90369 0.69307 0.62327 3.9126 3.8894 4.2434 4.3049 0.16348 0.20526 0.37236 0.53062 0.46424 0.72306l0.16695 0.34986v6.4141c0 5.2182-0.011 6.462-0.0627 6.6707-0.0938 0.38314-0.43805 1.061-0.69226 1.3631-0.45759 0.54379-1.172 0.99722-1.7681 1.1223-0.13879 0.0291-0.2524 0.0697-0.2524 0.09s-2.5609 0.0371-5.6911 0.0371c-3.207 0-5.6911-0.0183-5.6911-0.0406zm11.081-1.6896c0.68896-0.12727 1.2364-0.64081 1.3691-1.2841 0.043-0.20869 0.0532-1.6508 0.0426-6.0204-0.0146-5.7096-0.0146-5.7469-0.10972-5.8778-0.0527-0.0724-0.19959-0.18418-0.32655-0.24832l-0.23082-0.11667-1.8893-0.0232c-2.1115-0.0261-2.1118-0.0261-2.37-0.36435l-0.12562-0.16457-0.028-1.893c-0.0293-1.9754-0.0466-2.1462-0.25165-2.4589-0.1653-0.25231-0.13897-0.25041-3.4888-0.25041-2.0361 0-3.1892 0.01737-3.3704 0.05089-0.48576 0.0898-0.85781 0.32838-1.1092 0.71136-0.33701 0.51338-0.31196-0.17461-0.31196 8.566 0 8.7032-0.01865 8.1685 0.30179 8.6479 0.25425 0.38028 0.67047 0.65786 1.094 0.72952 0.34928 0.0591 10.483 0.0556 10.805-4e-3zm-9.961-3.4531c-0.26933-0.10788-0.51314-0.45943-0.51314-0.73984 0-0.30761 0.19763-0.62505 0.4898-0.78681 0.12764-0.0706 0.5306-0.0775 4.5949-0.0775 4.0642 0 4.4672 7e-3 4.5949 0.0775 0.57564 0.31865 0.64765 1.0086 0.1472 1.411l-0.1792 0.14409-4.5089 9e-3c-2.9237 5e-3 -4.5499-7e-3 -4.6256-0.0377zm-0.02322-3.4078c-0.51722-0.28537-0.64034-0.90325-0.26189-1.3143 0.25644-0.27855 0.05541-0.26522 3.9978-0.26524l3.6217-2e-5 0.18885 0.10551c0.30556 0.17079 0.38373 0.31413 0.38373 0.70375 0 0.39338-0.10222 0.58114-0.39858 0.73235-0.17554 0.0896-0.28522 0.0922-3.8097 0.0909-2.556-1e-3 -3.6564-0.0165-3.7221-0.0528zm-0.04864-3.4379c-0.56699-0.34576-0.5795-1.066-0.02505-1.4397l0.15744-0.10606h4.4978c3.2333 0 4.5265 0.0146 4.5996 0.0523 0.52088 0.26761 0.65066 0.89997 0.27048 1.3179-0.24947 0.27421-0.0311 0.26249-4.8902 0.26231-4.2698-1.8e-4 -4.4744-4e-3 -4.6101-0.0867z" stroke-width=".046649"/></g></svg>
