<?xml version="1.0" encoding="UTF-8"?>
<!-- Created with Inkscape (http://www.inkscape.org/) -->
<svg width="9.2604mm" height="12.092mm" version="1.1" viewBox="0 0 9.2604 12.092" xml:space="preserve" xmlns="http://www.w3.org/2000/svg"><g transform="translate(-61.776 -30.544)"><path d="m63.294 42.614c0-0.01224-0.04774-0.02989-0.1061-0.03922-0.30733-0.04914-0.78439-0.34378-1.0039-0.62003-0.13744-0.17294-0.32457-0.54725-0.3735-0.7471-0.02813-0.1149-0.03435-0.95326-0.03435-4.6302v-4.4899l0.05987-0.19069c0.14116-0.44955 0.3894-0.78566 0.76742-1.0391 0.16673-0.11176 0.43721-0.22863 0.58319-0.25197 0.05856-0.0094 0.10027-0.02707 0.09268-0.03935-0.0078-0.01269 0.91155-0.02232 2.1306-0.02232 1.1794 0 2.1444 0.0097 2.1444 0.02147 0 0.01181 0.0445 0.03481 0.09889 0.0511 0.14755 0.04421 0.44459 0.24882 0.71745 0.4942 0.37902 0.34085 2.1397 2.127 2.3206 2.3542 0.08939 0.11225 0.20363 0.29018 0.25388 0.39542l0.09135 0.19133v3.5077c0 2.8537-0.0064 3.5339-0.03435 3.648-0.05129 0.20953-0.23956 0.58022-0.37858 0.74543-0.25024 0.29738-0.64092 0.54535-0.96693 0.61373-0.07592 0.01592-0.13803 0.03806-0.13803 0.0492s-1.4005 0.02025-3.1123 0.02025c-1.7538 0-3.1123-0.0097-3.1123-0.02225zm6.0597-0.92397c0.37677-0.06965 0.67615-0.35044 0.74873-0.70221 0.02354-0.11413 0.02913-0.90279 0.02334-3.2924-0.0076-3.1224-8e-3 -3.1428-0.05997-3.2144-0.02879-0.03961-0.10915-0.10072-0.17858-0.1358l-0.12623-0.06378-1.0332-0.01275c-1.1547-0.01426-1.1549-0.01429-1.2961-0.19925l-0.06871-0.09003-0.01531-1.0352c-0.01597-1.0803-0.02553-1.1737-0.13762-1.3447-0.09041-0.13798-0.07598-0.13694-1.9079-0.13694-1.1135 0-1.7441 0.0095-1.8432 0.02783-0.26565 0.04911-0.46911 0.17958-0.60659 0.38902-0.1843 0.28075-0.1706-0.09549-0.1706 4.6845 0 4.7595-0.0102 4.4671 0.16504 4.7293 0.13904 0.20796 0.36666 0.35976 0.59825 0.39895 0.19101 0.03233 5.7331 0.0304 5.9087-0.0021zm-5.4474-1.8884c-0.14729-0.05902-0.28062-0.25125-0.28062-0.4046 0-0.16822 0.10808-0.34182 0.26786-0.43028 0.06982-0.03865 0.29017-0.04237 2.5128-0.04237 2.2226 0 2.443 0.0037 2.5128 0.04237 0.3148 0.17426 0.35418 0.55156 0.08055 0.77166l-0.09803 0.07885-2.4658 5e-3c-1.5989 0.0032-2.4882-4e-3 -2.5296-0.0206zm-0.01275-1.8636c-0.28285-0.15606-0.35018-0.49396-0.14322-0.71877 0.14024-0.15233 0.03033-0.14504 2.1863-0.14505l1.9806-1.1e-5 0.10328 0.05772c0.1671 0.09339 0.20985 0.17179 0.20985 0.38486 0 0.21513-0.05589 0.31781-0.21797 0.4005-0.09603 0.04899-0.15598 0.05042-2.0834 0.04967-1.3978-5.78e-4 -1.9996-0.0091-2.0355-0.02893zm-0.0266-1.8801c-0.31007-0.18909-0.31691-0.58299-0.01367-0.78735l0.08608-0.05801h2.4597c1.7682 0 2.4754 0.0081 2.5154 0.02863 0.28486 0.14635 0.35583 0.49217 0.14792 0.7207-0.13643 0.14996-0.01703 0.14355-2.6743 0.14345-2.335-9.7e-5 -2.4469-0.0022-2.5211-0.04743z" fill="#004cff" stroke-width=".025511"/></g></svg>
