<?xml version="1.0" encoding="UTF-8"?>
<!-- Created with Inkscape (http://www.inkscape.org/) -->
<svg width="10.583mm" height="7.5076mm" version="1.1" viewBox="0 0 10.583 7.5076" xml:space="preserve" xmlns="http://www.w3.org/2000/svg"><g transform="translate(-22.7 -34.743)"><path d="m24.068 42.228c-0.1577-0.03129-0.45957-0.1573-0.59705-0.24922-0.27234-0.18208-0.52179-0.49106-0.6473-0.8018-0.12732-0.31521-0.12984-0.37292-0.12123-2.7785 0.0088-2.4633 5.24e-4 -2.3332 0.17129-2.6883 0.16438-0.34177 0.44454-0.62142 0.79677-0.79534 0.37918-0.18723 0.09081-0.17615 4.4014-0.16905l3.838 0.0063 0.17997 0.06144c0.29124 0.09943 0.48009 0.21816 0.70126 0.44089 0.16607 0.16723 0.21916 0.24018 0.30925 0.4249 0.19072 0.39105 0.18281 0.26858 0.18235 2.8215-4.44e-4 2.5482 0.0067 2.4359-0.179 2.8122-0.09275 0.18801-0.14348 0.2563-0.32328 0.43521-0.24445 0.24324-0.47832 0.38051-0.77954 0.45754-0.17629 0.04509-0.27348 0.04615-4.009 0.04363-2.1056-0.0014-3.8713-0.01109-3.9238-0.02151zm7.836-0.75863c0.06131-0.02381 0.11672-0.05177 0.12313-0.06214 9e-3 -0.01459-1.9344-1.8495-2.4476-2.3109l-0.10037-0.09024-0.15785 0.15081c-0.29813 0.28483-0.53848 0.42425-0.88343 0.51247-0.22554 0.05768-0.60533 0.0631-0.84623 0.01206-0.27375-0.05799-0.60032-0.23564-0.86404-0.47002l-0.22929-0.20379-0.33408 0.3156c-0.18375 0.17358-0.42387 0.39863-0.53361 0.50011-0.10974 0.10148-0.34741 0.3231-0.52816 0.49249-0.18075 0.16939-0.50821 0.47594-0.7277 0.68123-0.21948 0.20529-0.40234 0.38079-0.40635 0.39001-0.01063 0.02432 0.06914 0.06238 0.21146 0.10093 0.10609 0.02873 0.6775 0.03304 3.8686 0.02918 3.5762-0.0043 3.7491-0.0065 3.8556-0.04782zm-8.2943-0.77244c0.35688-0.32259 2.3378-2.185 2.3378-2.1979 0-0.01635-2.4231-2.2865-2.4531-2.2983-0.0096-0.0038-0.02387 0.01737-0.03179 0.04695-0.01899 0.07093-0.01936 4.3808-3.73e-4 4.4757 0.0081 0.04034 0.01973 0.07336 0.0259 0.07336 0.0062 0 0.06089-0.04489 0.12159-0.09976zm8.934-2.2007c0-1.5436-0.0078-2.2589-0.0247-2.2758-0.01728-0.01728-0.22245 0.16044-0.68298 0.59155-0.36206 0.33893-0.91344 0.85359-1.2253 1.1437-0.31186 0.29009-0.56701 0.53389-0.56701 0.54178 0 0.0079 0.21391 0.21396 0.47535 0.45793 0.51075 0.47663 0.91818 0.85833 1.563 1.4643 0.30962 0.29097 0.41347 0.37588 0.43427 0.35508 0.02042-0.02042 0.02734-0.59698 0.02734-2.2785zm-4.3262 0.46654c0.1707-0.03625 0.3685-0.13993 0.51665-0.27081 0.1095-0.09674 2.0098-1.8707 2.9609-2.7639l0.34848-0.32731-0.07853-0.04121c-0.17361-0.09112-0.27002-0.09317-4.0574-0.08632-3.4475 0.0063-3.6812 0.0093-3.7959 0.04833-0.06722 0.02293-0.12978 0.0539-0.139 0.06882-0.0098 0.01586 0.01742 0.05706 0.06551 0.09915 0.04526 0.03961 0.63552 0.58962 1.3117 1.2222 1.9055 1.7828 2.0096 1.8777 2.1314 1.944 0.22518 0.12256 0.48503 0.16033 0.73616 0.10701z" fill="#004cff" stroke-width=".023474"/></g></svg>
