<?xml version="1.0" encoding="UTF-8"?>
<!-- Created with Inkscape (http://www.inkscape.org/) -->
<svg width="9.5119mm" height="9.2604mm" version="1.1" viewBox="0 0 9.5119 9.2604" xmlns="http://www.w3.org/2000/svg">
 <g transform="translate(-72.231 -40.248)">
  <path d="m75.118 49.368c-0.82648-0.34417-1.5415-0.9328-2.0716-1.7055-0.37684-0.54924-0.5927-1.0536-0.73235-1.711-0.10241-0.48211-0.11237-1.3734-0.0205-1.8365 0.29581-1.4916 1.2279-2.7154 2.5896-3.4001 0.33855-0.17022 0.9168-0.35363 1.3276-0.42109 0.47497-0.078 1.3792-0.05256 1.828 0.05144 1.873 0.43401 3.2768 1.896 3.6415 3.7924 0.0823 0.42792 0.083 1.2555 1e-3 1.7033-0.21263 1.1672-0.90059 2.272-1.8508 2.972-0.45291 0.33367-1.1932 0.69574-1.4225 0.69574-0.20835 0-0.21739-0.03963-0.23136-1.0136-0.012-0.83204-0.0178-0.89805-0.0954-1.0674-0.0455-0.0993-0.11432-0.21425-0.15301-0.25543l-0.0703-0.07489 0.2737-0.04599c0.80971-0.13605 1.3868-0.50924 1.6454-1.064 0.18086-0.38795 0.23123-0.64508 0.23206-1.1846 7e-4 -0.56281-0.0487-0.74602-0.30564-1.1309-0.14665-0.21962-0.14884-0.22749-0.10608-0.38023 0.0538-0.1919 0.0258-0.7281-0.0487-0.93237l-0.0528-0.1448-0.21295 3e-3c-0.16981 0.0024-0.27719 0.03314-0.53017 0.15172-0.17447 0.08179-0.36796 0.18484-0.42997 0.229l-0.11276 0.08029-0.3483-0.06808c-0.47283-0.09243-1.2706-0.09292-1.742-0.0011l-0.3439 0.06701-0.2172-0.13175c-0.30314-0.18388-0.7445-0.34821-0.93524-0.34821h-0.1593l-0.0633 0.22549c-0.0726 0.25888-0.0834 0.6656-0.0235 0.88274 0.0399 0.14443 0.0363 0.15613-0.11793 0.38616-0.25102 0.37434-0.29367 0.53892-0.2929 1.1301 6.9e-4 0.56312 0.0653 0.85457 0.27841 1.2565 0.27247 0.51395 0.8841 0.87708 1.6666 0.98948 0.0946 0.01359 0.17195 0.03207 0.17195 0.0411 0 9e-3 -0.0392 0.06826-0.0872 0.13164-0.048 0.06338-0.11055 0.19668-0.13907 0.29623-0.0699 0.244-0.16243 0.28908-0.59398 0.28937-0.31013 2.74e-4 -0.34162-0.0068-0.48624-0.10837-0.085-0.05973-0.23014-0.21448-0.32244-0.3439-0.27255-0.38215-0.60595-0.58262-0.87183-0.52422-0.14127 0.03103-0.13298 0.09524 0.0302 0.23383 0.30509 0.25914 0.38061 0.35383 0.54004 0.6772 0.26737 0.5423 0.52669 0.67918 1.2448 0.65708l0.39623-0.0122-3e-5 0.49213c-3e-5 0.43076-8e-3 0.4996-0.0663 0.55204-0.10012 0.09061-0.24454 0.07149-0.61014-0.08075z" stroke-width=".036199"/>
 </g>
</svg>
