<?xml version="1.0" encoding="UTF-8"?>
<!-- Created with Inkscape (http://www.inkscape.org/) -->
<svg width="9.525mm" height="9.5246mm" version="1.1" viewBox="0 0 9.525 9.5246" xml:space="preserve" xmlns="http://www.w3.org/2000/svg"><g transform="translate(-8.4506 -24.091)"><path d="m13.213 24.091a4.7624 4.7624 0 0 0-4.7627 4.7623 4.7624 4.7624 0 0 0 4.7627 4.7623 4.7624 4.7624 0 0 0 4.7623-4.7623 4.7624 4.7624 0 0 0-4.7623-4.7623zm1.9614 2.042c1.402 7e-4 1.2534 0.01239 1.3486 0.07488 0.11716 0.07697 0.20829 0.21723 0.25575 0.39321 0.01851 0.06865 0.02085 0.0939 0.02062 0.21089-2.46e-4 0.11523-0.0029 0.14292-0.02098 0.21053-0.0562 0.21102-0.17046 0.36158-0.33425 0.43952l-0.05209 0.0246-3.1533 0.0015c-1.8236 8.4e-4 -3.1712-0.0025-3.196-8e-3 -0.02362-0.0052-0.067797-0.0233-0.098033-0.04015-0.29086-0.16207-0.40592-0.61837-0.24635-0.9767 0.034112-0.07659 0.11877-0.18881 0.17653-0.23405 0.024787-0.01941 0.071497-0.04801 0.10382-0.06367l0.058962-0.02858 3.1511-0.0025c0.87843-7.7e-4 1.5183-0.0017 1.9856-0.0015zm0 2.0428c1.402 7e-4 1.2534 0.01239 1.3486 0.07488 0.11716 0.07697 0.20829 0.21723 0.25575 0.39321 0.01851 0.06864 0.02085 0.0939 0.02062 0.2109-2.46e-4 0.11523-0.0029 0.14292-0.02098 0.21053-0.0562 0.21102-0.17046 0.36158-0.33425 0.43952l-0.05209 0.0246-3.1533 0.0015c-1.8236 8.4e-4 -3.1712-0.0024-3.196-8e-3 -0.02362-0.0052-0.067797-0.0233-0.098033-0.04015-0.29085-0.16206-0.40592-0.61836-0.24634-0.97669 0.034112-0.076589 0.11877-0.18881 0.17653-0.23405 0.024787-0.0194 0.071497-0.04801 0.10382-0.06367l0.058962-0.02858 3.1511-0.0025c0.87843-7.7e-4 1.5183-0.0017 1.9856-0.0015zm0 2.0424c1.402 7e-4 1.2534 0.01275 1.3486 0.07524 0.11716 0.07697 0.20829 0.21723 0.25575 0.39321 0.01851 0.06865 0.02085 0.0939 0.02062 0.2109-2.46e-4 0.11523-0.0029 0.14292-0.02098 0.21053-0.0562 0.21102-0.17046 0.36158-0.33425 0.43952l-0.05209 0.0246-3.1533 0.0015c-1.8236 8.4e-4 -3.1711-0.0024-3.196-8e-3 -0.02362-0.0052-0.067797-0.0233-0.098033-0.04015-0.29086-0.16207-0.40592-0.61837-0.24635-0.9767 0.034112-0.07659 0.11877-0.18881 0.17653-0.23405 0.024787-0.0194 0.071497-0.04801 0.10382-0.06367l0.058962-0.02858 3.1511-0.0025c0.87844-7.7e-4 1.5183-2e-3 1.9856-0.0018z" stroke-linecap="round" stroke-linejoin="round" stroke-miterlimit="55.3" stroke-width="2.9045" style="paint-order:markers fill stroke"/></g></svg>
