<?xml version="1.0" encoding="UTF-8"?>
<!-- Created with Inkscape (http://www.inkscape.org/) -->
<svg width="25.4mm" height="33.698mm" version="1.1" viewBox="0 0 25.4 33.698" xml:space="preserve" xmlns="http://www.w3.org/2000/svg"><g transform="translate(-47.631 -27.859)"><path d="m60.61 61.525c-3.1331-0.21246-5.4683-0.66217-7.7776-1.4978-0.67834-0.24547-1.1999-0.47597-0.9079-0.40123 1.4305 0.36612 4.0238 0.75697 6.0019 0.90459 1.3537 0.10102 3.9997 0.08621 5.2806-0.02957 3.5977-0.3252 6.5006-1.1752 8.5412-2.5011 0.45537-0.29587 1.1579-0.85281 1.2024-0.95329 0.01064-0.024 0.03967-0.03109 0.0645-0.01575 0.02483 0.01533 0.02057 0.16314-0.0095 0.32843-0.34437 1.8947-3.3642 3.4584-7.7211 3.9982-1.3744 0.17026-3.5077 0.24676-4.6746 0.16763zm-4.1552-2.565c-4.0034-0.22277-7.133-1.0382-8.2665-2.154-0.84503-0.83181-0.7236-1.7015 0.33116-2.3716 0.76058-0.48324 1.6619-0.68518 2.9133-0.6527l0.83803 0.02175 0.59154 0.33373c0.32535 0.18355 0.59154 0.34253 0.59154 0.35328 0 0.01075-0.27918 0.01933-0.62039 0.01904-0.93715-8.73e-4 -1.7157 0.24506-2.0557 0.64904-0.21471 0.25517-0.19824 0.46607 0.05861 0.75036 1.4348 1.5882 10.744 2.0807 15.682 0.82967 1.5965-0.40442 2.6608-1.002 3.0059-1.6877 0.09725-0.19324 0.13057-0.70993 0.0601-0.93196-0.04691-0.14781-0.04113-0.14701 0.29548 0.04108 0.66765 0.37308 0.95418 0.87308 0.82692 1.443-0.26055 1.1668-1.8863 2.0957-4.7584 2.7187-2.6216 0.56868-6.3003 0.81604-9.4935 0.63836zm0.40398-3.8425c-1.6724-0.17317-2.9254-0.63584-3.2094-1.1851-0.13015-0.25169-0.0804-0.67319 0.11416-0.96719 0.30374-0.45898 0.96169-0.82056 1.6737-0.91982 0.19464-0.02714 0.36303-0.04102 0.37421-0.03085 0.01117 0.01017-0.02129 0.07788-0.07214 0.15048-0.19772 0.28228-0.05663 0.58988 0.34038 0.74213 0.4339 0.16639 1.0652 0.23777 2.1065 0.23818 1.5853 6.55e-4 3.0912-0.21232 4.2746-0.60444l0.55225-0.18299 1.0185 0.66368c0.56019 0.36502 1.0194 0.68475 1.0204 0.7105 0.0036 0.09071-1.1894 0.61219-1.8738 0.81906-0.7451 0.22523-1.9257 0.44358-2.9389 0.54355-0.57641 0.05687-2.9001 0.07255-3.3805 0.02281zm9.7272-3.1811c0.03016-0.02548 0.20931-0.16183 0.39812-0.30298 0.52703-0.39401 1.3934-1.2443 1.7904-1.7571 0.75773-0.97889 1.0641-1.6549 1.112-2.454 0.03825-0.63758-0.09227-0.97069-0.54106-1.3809-0.44575-0.40739-0.83144-0.54484-1.5387-0.54836-0.56042-0.0028-0.56425-0.0038-0.43301-0.11017 0.40174-0.32572 1.4072-0.67174 1.952-0.67174 0.7016 0 1.3077 0.23377 1.7482 0.67431 0.34158 0.34158 0.53475 0.73028 0.65622 1.3205 0.07962 0.38684 0.08427 0.54757 0.02993 1.0351-0.07845 0.70377-0.22158 1.1335-0.55653 1.6709-0.70285 1.1277-2.0865 1.9839-3.9279 2.4307-0.60815 0.14756-0.78104 0.17108-0.68965 0.09384zm-9.6278-0.12903c-1.5242-0.12728-2.8731-0.43099-3.7139-0.8362-0.53302-0.25689-0.79791-0.48827-0.86499-0.75557-0.05733-0.22841 0.13256-0.63053 0.41526-0.87937 0.46797-0.41192 1.3882-0.81616 1.858-0.81616h0.19664l-0.14941 0.17756c-0.21852 0.2597-0.20208 0.51448 0.04731 0.73345 0.94611 0.8307 5.6233 0.85274 8.449 0.03983l0.47958-0.13797 0.94864 0.60923c0.52175 0.33508 0.93546 0.63056 0.91934 0.65663-0.08512 0.13773-2.153 0.73031-3.2284 0.92515-1.5305 0.27728-3.9179 0.4036-5.357 0.28343zm-2.3501-3.5543c-2.1308-0.16846-3.3507-0.42529-4.0967-0.86249-0.71194-0.41726-0.81741-0.94494-0.29356-1.4688 0.62291-0.62291 2.1711-1.0005 4.7395-1.1559 1.5332-0.09276 1.6104-0.07224 0.71957 0.19109-0.40379 0.11936-0.95621 0.3124-1.2276 0.42899-0.50216 0.21572-0.97002 0.58015-0.92608 0.72133 0.04057 0.13036 0.40389 0.26759 0.88009 0.33244 2.5557 0.34804 9.2538 0.0762 11.963-0.48553 0.19838-0.04113 0.3607-0.05847 0.36069-0.03854-2e-6 0.07068-2.0521 1.6233-2.1455 1.6233-0.02843 0-0.42084 0.06348-0.872 0.14108-2.3061 0.3966-4.1898 0.55739-6.7645 0.5774-1.1427 0.0089-2.1945 0.0069-2.3373-0.0044zm6.6847-2.5322c0.85689-0.93757 1.0855-1.9086 0.66095-2.8075-0.09518-0.20152-0.38862-0.69103-0.65209-1.0878-0.76161-1.1469-1.093-1.96-1.0938-2.6836-4.36e-4 -0.45362 0.21987-1.3163 0.4604-1.8026 0.88446-1.788 3.1011-3.0632 6.1972-3.5654 0.95219-0.15444 0.95387-0.14736 0.10217 0.43164-2.0458 1.3908-3.542 2.704-4.0486 3.5534-0.16982 0.28478-0.20473 0.40295-0.2224 0.75288-0.02898 0.57387 0.06837 0.86356 0.70958 2.1116 0.60683 1.1811 0.72419 1.5365 0.72419 2.1925 0 1.0713-0.72793 2.1282-1.8925 2.7476-0.42168 0.22429-1.0447 0.4747-1.181 0.4747-0.02996 0 0.07617-0.14294 0.23584-0.31764zm-1.9244-0.84158c-0.78243-0.62307-0.73714-0.58456-1.3628-1.1586-1.0295-0.94456-1.9268-2.0795-2.388-3.0204-0.37708-0.76934-0.4903-1.1918-0.4894-1.8262 2e-3 -1.4193 0.73672-2.4187 3.4307-4.6668 0.66525-0.55515 1.3535-1.1414 1.5293-1.3028 0.17589-0.16139 0.381-0.34318 0.45581-0.40398 0.07481-0.0608 0.36755-0.36686 0.65054-0.68014 0.95137-1.0532 1.3789-1.9485 1.3762-2.8816-8.72e-4 -0.26022-0.02497-0.56403-0.05382-0.67513-0.02884-0.11109-0.06897-0.26691-0.08918-0.34627-0.08413-0.33035 0.49974 0.82024 0.67276 1.3258 0.17693 0.51695 0.18826 0.59817 0.18935 1.3578 0.0013 0.93938-0.07092 1.2697-0.45703 2.0885-0.51404 1.0901-1.1071 1.8444-3.0086 3.8268-1.207 1.2582-1.7379 1.947-2.0467 2.6548-0.11389 0.26112-0.13856 0.41464-0.13909 0.86567l-6.55e-4 0.54826 0.39523 0.92111c0.47388 1.1044 0.97806 2.1204 1.5322 3.0876 0.22514 0.39298 0.40258 0.72127 0.3943 0.72955-0.0083 0.0083-0.27435-0.19144-0.59127-0.44381z" stroke-width=".057711"/></g></svg>
