<?xml version="1.0" encoding="UTF-8" standalone="no"?>
<!-- Created with Inkscape (http://www.inkscape.org/) -->

<svg
   width="9.5118666mm"
   height="9.260416mm"
   viewBox="0 0 9.5118666 9.260416"
   version="1.1"
   id="svg1180"
   inkscape:version="1.2.2 (732a01da63, 2022-12-09)"
   xmlns:inkscape="http://www.inkscape.org/namespaces/inkscape"
   xmlns:sodipodi="http://sodipodi.sourceforge.net/DTD/sodipodi-0.dtd"
   xmlns="http://www.w3.org/2000/svg"
   xmlns:svg="http://www.w3.org/2000/svg">
  <sodipodi:namedview
     id="namedview1182"
     pagecolor="#ffffff"
     bordercolor="#000000"
     borderopacity="0.25"
     inkscape:showpageshadow="2"
     inkscape:pageopacity="0.0"
     inkscape:pagecheckerboard="0"
     inkscape:deskcolor="#d1d1d1"
     inkscape:document-units="mm"
     showgrid="false"
     inkscape:zoom="5.8012346"
     inkscape:cx="-16.806767"
     inkscape:cy="24.908491"
     inkscape:window-width="1920"
     inkscape:window-height="1001"
     inkscape:window-x="-9"
     inkscape:window-y="-9"
     inkscape:window-maximized="1"
     inkscape:current-layer="layer1" />
  <defs
     id="defs1177" />
  <g
     inkscape:label="Layer 1"
     inkscape:groupmode="layer"
     id="layer1"
     transform="translate(-72.230558,-40.248168)">
    <path
       style="fill:#000000;stroke-width:0.0106921"
       d="m 76.797763,49.504852 c -0.0205,-0.0021 -0.0927,-0.0096 -0.16037,-0.01594 -0.81179,-0.07694 -1.64913,-0.407643 -2.31763,-0.915371 -0.24421,-0.185474 -0.56408,-0.489662 -0.75112,-0.714278 -0.59649,-0.71638 -0.95736,-1.567914 -1.06032,-2.501956 -0.0188,-0.171216 -0.019,-0.804561 -3.2e-4,-0.956946 0.0715,-0.581003 0.2055,-1.048789 0.43937,-1.534315 0.23499,-0.487835 0.50686,-0.866789 0.90904,-1.267094 0.39013,-0.388296 0.74265,-0.640542 1.22526,-0.876739 0.98105,-0.480134 2.07027,-0.59863 3.13814,-0.341385 0.71864,0.173115 1.39076,0.524032 1.95664,1.021593 0.62202,0.546893 1.0888,1.253989 1.34644,2.039661 0.069,0.210367 0.12174,0.424918 0.16071,0.653558 0.0516,0.302693 0.0593,0.408427 0.0588,0.80725 -4.5e-4,0.398361 -0.0145,0.559933 -0.0755,0.866064 -0.22526,1.13167 -0.86133,2.143579 -1.77387,2.821996 -0.66665,0.49564 -1.39845,0.787765 -2.23998,0.894177 -0.12643,0.016 -0.75985,0.03055 -0.85537,0.01971 z m -1.24029,-3.858831 v -1.99408 h -0.62014 -0.62014 v 1.99408 1.99408 h 0.62014 0.62014 z m 1.97895,1.3873 c 0.001,-0.950421 0.0167,-1.891884 0.0315,-1.953985 0.0153,-0.06387 0.0947,-0.210627 0.15045,-0.278013 0.0824,-0.09975 0.19384,-0.171304 0.31648,-0.203245 0.07,-0.01822 0.24026,-0.02097 0.32515,-0.0053 0.15805,0.02928 0.29864,0.143186 0.37275,0.301931 0.077,0.164955 0.076,0.155328 0.0859,0.777983 0.005,0.308737 0.009,0.877687 0.009,1.264341 l 0.001,0.70301 h 0.62663 0.62664 l -0.005,-1.32315 c -0.005,-1.282196 -0.006,-1.327121 -0.0274,-1.451457 -0.10581,-0.606832 -0.35142,-0.978066 -0.77957,-1.178145 -0.20276,-0.09476 -0.3898,-0.126094 -0.70595,-0.118315 -0.18265,0.0042 -0.21208,0.008 -0.33387,0.03977 -0.25576,0.0667 -0.42278,0.157775 -0.58891,0.321142 -0.0568,0.05586 -0.13036,0.138554 -0.16346,0.183753 -0.033,0.04522 -0.0641,0.08458 -0.0688,0.08752 -0.005,0.0031 -0.0223,-0.113434 -0.039,-0.2586 -0.0167,-0.145169 -0.0327,-0.269955 -0.0353,-0.277305 -0.004,-0.01038 -0.12163,-0.01335 -0.53899,-0.01335 h -0.53394 l 0.006,0.60678 c 0.004,0.333723 0.009,1.23106 0.0125,1.994074 l 0.007,1.387307 h 0.62418 0.62418 l 10e-4,-0.60678 z m -2.38,-3.899439 c 0.27524,-0.09282 0.43389,-0.301433 0.43543,-0.572536 0.001,-0.18908 -0.0514,-0.317462 -0.18424,-0.450065 -0.14084,-0.140681 -0.27382,-0.186765 -0.51305,-0.17779 -0.20041,0.0075 -0.31811,0.05686 -0.44991,0.18864 -0.12115,0.121123 -0.17836,0.279645 -0.16628,0.460597 0.0105,0.161312 0.0657,0.283265 0.17874,0.396895 0.0807,0.08115 0.20554,0.149541 0.31984,0.175254 0.10722,0.02409 0.27293,0.01493 0.37947,-0.02097 z"
       id="path4115"
       inkscape:export-filename="Projects\webpage\images\linkedin.png"
       inkscape:export-xdpi="96"
       inkscape:export-ydpi="96" />
  </g>
</svg>
