<?xml version="1.0" encoding="UTF-8"?>
<!-- Created with Inkscape (http://www.inkscape.org/) -->
<svg width="25.4mm" height="29.861mm" version="1.1" viewBox="0 0 25.4 29.861" xml:space="preserve" xmlns="http://www.w3.org/2000/svg"><g transform="translate(464.3 -53.856)"><path d="m-446.13 83.709c-0.65601-0.06384-1.207-0.31048-1.5921-0.71274-0.22795-0.23807-0.35342-0.47624-0.4279-0.81224l-0.0217-0.09774-0.12662-0.05955c-0.6917-0.32536-1.6702-0.57798-2.5792-0.66588-0.93048-0.08997-2.1804-0.02582-2.8574 0.14665-0.2 0.05095-0.38702 0.11993-0.39407 0.14535-0.13184 0.47539-0.4477 0.94869-0.88261 1.3225-0.16905 0.14531-0.29321 0.22941-0.44921 0.30427-0.57504 0.27594-1.3019 0.28042-2.233 0.01377-0.29038-0.08315-0.59307-0.18835-1.0567-0.36724-0.88364-0.34097-1.0356-0.38847-1.5496-0.48437-0.38623-0.07206-0.6149-0.12164-1.2482-0.27062-0.68615-0.16141-1.1443-0.27593-1.3967-0.34909-0.66934-0.19407-1.0347-0.39956-1.1934-0.67118-0.11166-0.19112-0.16253-0.37715-0.16233-0.59364 1.7e-4 -0.18392 0.0329-0.34741 0.14427-0.72081 0.17872-0.59919 0.19396-0.70014 0.18451-1.2226-4e-3 -0.21237-0.0187-0.504-0.0354-0.69774-0.0382-0.44125-0.0415-0.9628-7e-3 -1.1522 0.0463-0.25597 0.14012-0.47743 0.25585-0.60406 0.13199-0.14442 0.39293-0.28308 0.717-0.38101 0.0834-0.0252 0.30809-0.07765 0.49929-0.11655 1.0199-0.20749 1.1052-0.26569 1.6445-1.122 0.20061-0.31854 0.28435-0.43407 0.40658-0.56093l0.0925-0.09602 7e-3 -0.5313c4e-3 -0.29222 0.013-0.5918 0.0206-0.66573 0.0461-0.44977 0.11611-0.77207 0.26289-1.2098 0.10876-0.32438 0.21887-0.58632 0.41148-0.97889 0.33836-0.68965 0.59351-1.118 1.4086-2.3648 0.6014-0.91993 0.81018-1.2501 1.0957-1.7325 0.93941-1.5872 1.5246-2.8564 1.6868-3.6583 0.0691-0.34162 0.0955-1.1178 0.0593-1.7379-0.0349-0.59692-0.0457-1.0268-0.0456-1.8116 1.9e-4 -1.2206 0.0212-1.6121 0.10936-2.0484 0.2943-1.4559 1.2623-2.548 2.73-3.0801 0.14821-0.05373 0.4032-0.1247 0.57207-0.15922 0.4631-0.09467 1.3292-0.04813 1.9312 0.10378 0.66288 0.16727 1.1231 0.42169 1.6074 0.88868 0.79376 0.7653 1.2056 1.7431 1.3399 3.1814 0.014 0.14989 0.0231 0.48638 0.0311 1.1586 0.0177 1.4629 0.0531 2.2127 0.1291 2.7333 0.0329 0.22549 0.063 0.34927 0.12675 0.52266 0.18212 0.49491 0.36755 0.81959 1.2699 2.2235 0.52085 0.81032 0.77631 1.2134 1.0346 1.6323 0.11504 0.1866 0.24076 0.38824 0.27938 0.44809 1.2793 1.9825 1.9826 3.4467 2.2166 4.6153 0.0812 0.40535 0.0956 0.56738 0.0959 1.0818 3.8e-4 0.41736-3e-3 0.49054-0.0291 0.68493-0.0359 0.2652-0.0987 0.58607-0.16651 0.85136-0.0279 0.10914-0.0499 0.1994-0.0488 0.20058 1e-3 0.0011 0.074 0.01192 0.16197 0.02387 0.31418 0.04267 0.46349 0.10858 0.63456 0.28012 0.24831 0.249 0.35288 0.49106 0.43461 1.0061 0.0568 0.35783 0.0943 0.55487 0.11984 0.62902 0.0784 0.22772 0.22224 0.49252 0.35278 0.6492 0.11513 0.13818 0.18691 0.20464 0.67303 0.62312 0.78452 0.67534 0.9858 0.94324 0.9858 1.3121 0 0.13024-0.023 0.22811-0.0841 0.35764-0.11254 0.23859-0.30332 0.44928-0.62747 0.69294-0.17651 0.13268-0.91866 0.63158-1.5416 1.0364-0.76112 0.49452-0.95782 0.63409-1.5875 1.1264-0.15843 0.12388-0.40328 0.31391-0.5441 0.4223-0.25191 0.19388-0.36093 0.28527-0.66573 0.55808-0.52288 0.46799-0.88373 0.65327-1.4339 0.73624-0.19241 0.02902-0.56986 0.04135-0.74474 0.02433zm0.68073-0.30175c0.34325-0.04234 0.62962-0.14568 0.91301-0.32947 0.1236-0.08016 0.30982-0.2323 0.56539-0.46193 0.12306-0.11058 0.3103-0.26827 0.41608-0.35043s0.3594-0.27974 0.5636-0.43907c0.72118-0.56269 0.96188-0.73592 1.5683-1.1287 1.1413-0.73914 1.7894-1.1891 1.973-1.37 0.0395-0.03888 0.1038-0.11891 0.14293-0.17784 0.11812-0.17789 0.14919-0.3188 0.1043-0.4729-0.0784-0.26908-0.41056-0.64378-1.0744-1.2119-0.42097-0.36031-0.6444-0.6448-0.79702-1.0148-0.0919-0.22274-0.13148-0.37958-0.2007-0.7947-0.0551-0.33062-0.0815-0.43142-0.15059-0.57516-0.0457-0.0952-0.0717-0.12823-0.20733-0.2638-0.21384-0.21375-0.29153-0.24916-0.66075-0.30116-0.13098-0.01844-0.53104-0.01925-0.57658-0.0011-0.0237 0.0094-0.0564 0.05759-0.12066 0.17749-0.42103 0.78586-0.80039 1.2367-1.3097 1.5566-0.37867 0.23784-0.74029 0.36253-1.0943 0.37733-0.35363 0.01477-0.59693-0.06642-0.78951-0.26349-0.13009-0.13312-0.25867-0.35918-0.34592-0.6082-0.11399-0.32531-0.193-0.79138-0.193-1.1385v-0.14038l-0.0558 0.0077c-0.31228 0.0428-0.51383 0.33145-0.5901 0.84509-0.0294 0.19776-0.0452 0.46001-0.0453 0.75128 0 0.14447-9e-3 0.46422-0.019 0.71054-0.0104 0.24632-0.0278 0.74744-0.0387 1.1136-0.029 0.97661-0.0252 0.94721-0.25011 1.9222-0.2425 1.0514-0.27868 1.3459-0.22544 1.8354 0.0543 0.49902 0.13705 0.76699 0.30649 0.99234 0.0858 0.11409 0.28224 0.29808 0.40595 0.3802 0.49671 0.32971 1.1074 0.45755 1.786 0.37386zm-10.696-0.2117c0.23394-0.02581 0.43075-0.08425 0.63262-0.18786 0.15187-0.07794 0.29154-0.18326 0.46063-0.34735 0.40498-0.39298 0.65014-0.808 0.70009-1.1851 0.0186-0.14054 8e-3 -0.5103-0.0188-0.68499-0.0251-0.16055-0.073-0.30973-0.15132-0.47112-0.11685-0.24075-0.25671-0.43301-0.57925-0.79627-0.39534-0.44526-0.45372-0.52198-0.88648-1.165-0.3864-0.57415-0.65942-0.96915-1.3096-1.8948-0.46564-0.66287-0.777-1.1111-1.0049-1.4467-0.34326-0.50542-0.55512-0.74387-0.8136-0.91571-0.31008-0.20614-0.63804-0.21566-1.0109-0.02932-0.11509 0.05751-0.15113 0.08382-0.2505 0.18284-0.13589 0.1354-0.19029 0.21585-0.35093 0.51894-0.17062 0.32191-0.26271 0.45647-0.42172 0.61616-0.25933 0.26046-0.48673 0.37148-0.98044 0.47869-0.1197 0.02599-0.32134 0.06989-0.44809 0.09754-0.43408 0.09471-0.67835 0.1834-0.85777 0.31143-0.17289 0.12337-0.28773 0.3653-0.32812 0.69124-0.0173 0.13947-7e-3 0.4973 0.0215 0.76232 0.0275 0.25381 0.0382 0.87386 0.0199 1.1458-0.0293 0.43338-0.0843 0.70761-0.22508 1.1223-0.0937 0.27599-0.1219 0.39481-0.1219 0.51381 0 0.18957 0.11889 0.47177 0.25593 0.60751 0.13759 0.13628 0.36534 0.249 0.76849 0.38034 0.46261 0.15072 2.0516 0.53158 2.7779 0.66586 0.17251 0.03189 0.36216 0.06966 0.42143 0.08393 0.16689 0.04017 0.51079 0.15649 0.89723 0.30346 0.7024 0.26715 0.81629 0.30926 1.0114 0.37404 0.7349 0.24398 1.2763 0.32492 1.7924 0.268zm4.4107-3.4936c1.3644-0.08629 2.3525-0.46653 3.2644-1.2562 0.16026-0.13876 0.48902-0.47293 0.64411-0.65469l0.11764-0.13787 1.3e-4 -0.10538c0-0.05796 8e-3 -0.27821 0.0187-0.48945 0.0102-0.21124 0.0246-0.60012 0.032-0.86417 0.026-0.93152 0.0619-1.2151 0.18756-1.4807 0.0694-0.1467 0.20447-0.28752 0.36474-0.38025 0.0799-0.04627 0.23282-0.09709 0.31967-0.10629l0.0714-0.0076 0.0223-0.09763c0.0553-0.24184 0.19813-0.42313 0.41828-0.53109 0.25079-0.123 0.67169-0.18997 1.3108-0.20858 0.70409-0.0205 1.4063 0.07415 1.7685 0.23835 0.0451 0.02047 0.0821 0.03458 0.0821 0.03136 0-0.01396-0.19205-0.1283-0.30099-0.1792-0.3849-0.17986-0.92515-0.28656-1.6429-0.32446-0.12207-0.0064-0.22447-0.01424-0.22756-0.01732-3e-3 -0.0031 0.0287-0.10869 0.0706-0.23467 0.22098-0.66467 0.30987-1.2136 0.27133-1.6757-0.0841-1.0079-0.47204-1.8655-1.1716-2.5897-0.20484-0.21206-0.58885-0.54154-0.6295-0.54013-6e-3 1.89e-4 0.0317 0.04199 0.0847 0.09282 0.69844 0.67015 1.1665 1.4955 1.3308 2.3465 0.0677 0.35084 0.0939 0.79732 0.0657 1.1193-0.0367 0.41933-0.16674 0.85211-0.38878 1.2943l-0.0926 0.18437-0.35206 0.0072v-0.35563c-1.3e-4 -0.66946-0.0605-1.1888-0.21121-1.817-0.15274-0.63654-0.44437-1.4286-0.80299-2.1809-0.1586-0.33273-0.46653-0.80103-0.65662-0.99859l-0.0801-0.08322-0.046-0.21764c-0.0965-0.45668-0.13847-0.57943-0.38284-1.1202-0.24202-0.5356-0.33398-0.77231-0.46502-1.197-0.17161-0.5562-0.28671-1.0653-0.50583-2.2372-0.0234-0.12498-0.048-0.22724-0.0548-0.22724-0.0251 0-0.26232 0.13342-0.3985 0.22417-0.0775 0.05161-0.21284 0.15238-0.30086 0.22392-0.7544 0.61319-0.92866 0.73801-1.2652 0.90625-0.51137 0.25563-0.90547 0.34204-1.4131 0.30982-0.59794-0.03794-0.95394-0.23536-1.3832-0.76703-0.25435-0.31503-0.50776-0.58652-0.58707-0.62897-0.0196-0.0105-0.0241-0.0061-0.03 0.02938-4e-3 0.02295-0.0272 0.17136-0.0519 0.32979-0.17693 1.1329-0.46371 2.3242-0.69303 2.879-0.0702 0.16977-0.23082 0.50603-0.32185 0.67367-0.25534 0.47028-0.29325 0.55741-0.41766 0.95992l-0.0689 0.22301-0.0859 0.09486c-0.32854 0.36275-0.71262 1.1079-1.0538 2.0445-0.13224 0.36298-0.36738 1.1851-0.46248 1.617-0.11629 0.52813-0.19273 1.1341-0.19288 1.5292-3e-5 0.07217-5e-3 0.13123-0.0109 0.13123-6e-3 0-0.0199-0.0216-0.0309-0.04801s-0.0469-0.11138-0.0796-0.18884c-0.15407-0.36453-0.22702-0.73783-0.24508-1.2542-8e-3 -0.24274 8e-3 -0.58529 0.0405-0.83004 0.1357-1.0289 0.52533-1.919 1.1584-2.6463 0.0785-0.09024 0.10036-0.1227 0.0846-0.12581-0.0442-0.0087-0.27205 0.2158-0.46566 0.45868-0.54607 0.68506-0.91063 1.6163-1.055 2.6949-0.0251 0.18759-0.0292 0.27509-0.0296 0.63372-5.7e-4 0.41334-1.9e-4 0.41764 0.0411 0.65332 0.12628 0.71972 0.33235 1.2351 0.65503 1.6383 0.0906 0.11326 0.60382 0.62831 0.76802 0.77082 0.26388 0.22904 0.51717 0.42351 1.3543 1.0398 0.86343 0.63568 1.0538 0.88014 1.0538 1.3534 0 0.15816-0.0235 0.26259-0.0907 0.40367-0.10647 0.22332-0.3199 0.43266-0.60439 0.59282-0.0727 0.04092-0.0737 0.04229-0.0512 0.06742 0.0412 0.04598 0.19966 0.17006 0.31744 0.24855 0.52952 0.35289 1.2287 0.59648 2.0292 0.70697 0.15831 0.02185 0.35092 0.04014 0.60171 0.05715 0.14591 0.0099 0.66716 0.0071 0.85159-0.0046zm-0.56585-15.517c0.37683-0.03122 0.72077-0.14347 1.1134-0.36337 0.27211-0.15241 0.40677-0.24897 0.91175-0.65378 0.3854-0.30895 0.4482-0.35422 0.67681-0.48794 0.0976-0.05711 0.19584-0.11846 0.21824-0.13634 0.0573-0.0457 0.11849-0.1677 0.15753-0.31396 0.029-0.10843 0.0335-0.15185 0.0345-0.32971 1e-3 -0.20018 3.7e-4 -0.20667-0.036-0.28527-0.0935-0.20239-0.29267-0.30992-1.107-0.59754-0.37323-0.13183-0.89489-0.3243-1.1476-0.4234-0.51863-0.20342-0.81854-0.26543-1.1462-0.23697-0.41386 0.03594-0.70624 0.13665-1.1204 0.38595-0.5759 0.34663-0.96793 0.67151-1.1555 0.9576-0.1448 0.2208-0.20173 0.43644-0.1506 0.57034 0.0207 0.05409 0.0293 0.06082 0.18006 0.14059 0.0871 0.04608 0.26101 0.14228 0.38647 0.21378 0.3783 0.21558 0.55721 0.29873 0.83624 0.38864 0.31271 0.10076 0.71464 0.15849 0.98579 0.14158 0.5149-0.03211 1.0217-0.18074 1.509-0.44252 0.36188-0.19442 0.81446-0.49744 1.1105-0.74354 0.16488-0.13705 0.17993-0.14395 0.29854-0.13699 0.15117 0.0089 0.19324 0.05211 0.11488 0.11804-0.0218 0.01835-0.0945 0.06291-0.16143 0.09901-0.067 0.0361-0.20611 0.12626-0.30921 0.20034-0.37331 0.26828-0.75999 0.51655-1.0266 0.65915-0.33652 0.17998-0.91934 0.36947-1.3091 0.42562-0.11922 0.01717-0.20837 0.02043-0.42248 0.01543-0.31952-0.0075-0.45318-0.02992-0.73867-0.12409-0.25784-0.08505-0.45479-0.1772-0.81936-0.38337-0.17251-0.09756-0.31647-0.17482-0.31991-0.1717-3e-3 0.0031 0.10368 0.1133 0.23804 0.24482 0.14737 0.14426 0.32248 0.3331 0.44139 0.47598 0.28296 0.34003 0.42013 0.46649 0.64487 0.59457 0.28236 0.16091 0.69056 0.23397 1.1121 0.19904zm-1.0724-3.2801c-0.011-0.01565-0.0199-0.03945-0.0199-0.0529 0-0.04126 0.0513-0.11022 0.10051-0.13511 0.11904-0.06021 0.33477-0.06933 0.33477-0.01415 0 0.0065-0.0405 0.0379-0.0899 0.06988s-0.11909 0.08123-0.15478 0.10944c-0.0769 0.06079-0.13834 0.06901-0.17068 0.02284zm1.2087-0.08355c-0.1195-0.0616-0.21545-0.11746-0.21323-0.12413 0.0133-0.04003 0.27774-0.05111 0.36085-0.01513 0.11641 0.05041 0.19766 0.1829 0.14466 0.2359-0.0299 0.02987-0.0773 0.01418-0.29228-0.09664zm2.5652 0.12161c0.2376-0.32608 0.42996-0.69998 0.48728-0.94717 0.0826-0.3562 0.0345-0.79518-0.12655-1.1556-0.0902-0.20194-0.29296-0.4433-0.47144-0.5613-0.10148-0.06709-0.2465-0.13248-0.3648-0.16447-0.15038-0.04067-0.40186-0.03797-0.5682 0.0061-0.45304 0.12002-0.83973 0.4823-1.0169 0.95269-0.0394 0.1047-0.10151 0.35242-0.12622 0.50366-0.0289 0.17681-0.0461 0.47448-0.0353 0.61237l9e-3 0.12 0.19203 0.06682c0.10562 0.03675 0.23153 0.0821 0.2798 0.10078 0.076 0.02939 0.0865 0.03095 0.0784 0.01162-0.12348-0.29515-0.0945-0.67493 0.0745-0.97589 0.0622-0.1108 0.21515-0.27297 0.3083-0.32691 0.52822-0.30585 1.0861 0.09532 1.0854 0.78053-1.9e-4 0.23941-0.0579 0.43355-0.18609 0.62614-0.0702 0.10548-0.16564 0.2041-0.24011 0.2481-0.0202 0.01193-0.0367 0.02499-0.0367 0.02903 0 4e-3 0.0648 0.02983 0.14403 0.0573 0.0792 0.02748 0.19876 0.07156 0.26565 0.09795 0.0669 0.02639 0.12845 0.04834 0.1368 0.04876 8e-3 4.16e-4 0.0582-0.05828 0.1108-0.13046zm-4.7686 0.016c0.0999-0.06993 0.11534-0.08526 0.097-0.09602-0.25758-0.15082-0.42964-0.5071-0.42971-0.88977-6e-5 -0.23956 0.0423-0.39862 0.15-0.5636 0.0955-0.1463 0.21084-0.21831 0.36369-0.22712 0.0768-0.0044 0.1107 1e-5 0.1693 0.02212 0.21075 0.07952 0.37749 0.29307 0.46521 0.59577 0.0523 0.18034 0.0575 0.50425 0.0101 0.62773-6e-3 0.01521 0.01 0.01183 0.0676-0.01442 0.0414-0.01886 0.11248-0.04984 0.15807-0.06886 0.077-0.03214 0.0836-0.03811 0.0938-0.08467 6e-3 -0.02756 8e-3 -0.16532 5e-3 -0.30615-7e-3 -0.29241-0.035-0.45517-0.1254-0.73312-0.19231-0.59111-0.51181-0.89315-0.92018-0.86992-0.16033 0.0091-0.30596 0.05536-0.40534 0.12871-0.33894 0.25014-0.48079 0.89259-0.3421 1.5495 0.0828 0.39202 0.24801 0.75896 0.43586 0.9679 0.0362 0.04027 0.0636 0.06077 0.0732 0.05478 8e-3 -0.0053 0.0688-0.04703 0.13421-0.0928z" stroke-width=".012802"/></g></svg>
