<?xml version="1.0" encoding="UTF-8"?>
<!-- Created with Inkscape (http://www.inkscape.org/) -->
<svg width="25.4mm" height="25.389mm" version="1.1" viewBox="0 0 25.4 25.389" xml:space="preserve" xmlns="http://www.w3.org/2000/svg"><g transform="translate(-27.218 -118.99)"><path d="m38.955 144.35c-0.63528-0.0454-1.8392-0.23309-1.9728-0.30755-0.03068-0.0171-0.17512-0.0598-0.32098-0.0948-0.59046-0.14175-1.3733-0.40568-1.7627-0.59427-0.10295-0.0499-0.41965-0.20189-0.70378-0.33783-0.28412-0.13594-0.62106-0.31682-0.74875-0.40196-0.12769-0.0851-0.30236-0.19469-0.38815-0.24346-0.17888-0.10168-0.54648-0.35451-0.59276-0.4077-0.01716-0.0197-0.05439-0.0481-0.08273-0.0631-0.07071-0.0374-0.67482-0.50854-0.77334-0.60309-0.14534-0.13948-0.45379-0.42069-0.59289-0.54052-0.07534-0.0649-0.16882-0.16118-0.20775-0.21394-0.03892-0.0528-0.1875-0.21875-0.33016-0.36887-0.25858-0.27211-0.59809-0.68524-0.75673-0.9208-0.04597-0.0683-0.09492-0.13144-0.1088-0.14039-0.02376-0.0153-0.12789-0.17413-0.60401-0.92103-0.17513-0.27472-0.35296-0.61822-0.72682-1.4039-0.21316-0.44796-0.47169-1.1962-0.61984-1.7939-0.04466-0.18017-0.09479-0.35566-0.1114-0.38997-0.04373-0.0903-0.14833-0.64729-0.21974-1.1699-0.1876-1.3732-0.14004-2.9419 0.13083-4.3144 0.03796-0.19234 0.07719-0.35673 0.08718-0.36531 0.01-9e-3 0.0518-0.14897 0.09291-0.31198 0.15126-0.59975 0.53304-1.7352 0.59799-1.7784 0.01299-9e-3 0.07953-0.14278 0.14786-0.29805 0.1663-0.37789 0.50125-1.0438 0.54911-1.0917 0.02114-0.0211 0.09916-0.14175 0.17338-0.26803 0.33935-0.57737 0.9051-1.326 1.4349-1.8987 0.1508-0.16301 0.30755-0.33368 0.34835-0.37927 0.22738-0.25413 1.2618-1.1317 1.4859-1.2606 0.05577-0.0321 0.10139-0.0678 0.10139-0.0794 0-0.0237 0.49976-0.36555 0.63033-0.43123 0.0464-0.0233 0.17275-0.10281 0.28078-0.17661 0.17043-0.11643 0.65268-0.3662 1.4443-0.74806 0.49488-0.23871 1.2693-0.49019 2.3983-0.77886 0.62047-0.15864 1.6947-0.26425 2.6842-0.2639 1.5032 5.3e-4 2.4641 0.15123 3.9805 0.6242 0.42986 0.13407 0.83047 0.28701 1.1387 0.43471 0.83551 0.40035 1.1473 0.56083 1.3415 0.69059 0.12011 0.0802 0.28785 0.18392 0.37275 0.23042 0.18565 0.10167 0.53453 0.34456 0.63764 0.44392 0.04095 0.0395 0.08523 0.0717 0.09841 0.0717 0.03921 0 0.71328 0.55371 1.0786 0.88606 0.18677 0.16989 0.48766 0.47173 0.66864 0.67075 0.36238 0.39852 0.87207 1.018 0.87207 1.0598 0 0.0147 0.03258 0.0602 0.0724 0.10113 0.09967 0.10249 0.33999 0.44753 0.44298 0.63601 0.04688 0.0858 0.15908 0.2683 0.24934 0.40557 0.09025 0.13728 0.26471 0.46017 0.38769 0.71756 0.12298 0.25738 0.27169 0.56624 0.33048 0.68635 0.17906 0.36585 0.46052 1.1981 0.60664 1.7939 0.03578 0.14585 0.078 0.29326 0.09382 0.32758 0.04611 0.1 0.15193 0.67774 0.21999 1.2011 0.17149 1.3187 0.1358 2.7742-0.09945 4.0557-0.03622 0.19732-0.07297 0.40089-0.08166 0.45237-0.0087 0.0515-0.0257 0.10061-0.03782 0.10919-0.01211 9e-3 -0.05428 0.14897-0.09371 0.31198-0.13948 0.57668-0.51352 1.6909-0.60742 1.8095-0.02039 0.0257-0.07641 0.13805-0.1245 0.24959-0.142 0.32934-0.51865 1.0712-0.57814 1.1387-0.03024 0.0343-0.13358 0.19712-0.22964 0.36179-0.09606 0.16467-0.24178 0.38787-0.32384 0.49601-0.08205 0.10815-0.18428 0.24877-0.22718 0.3125-0.25844 0.38394-0.86223 1.0614-1.4038 1.575-0.16294 0.15453-0.35246 0.33437-0.42117 0.39966-0.14 0.13302-0.61854 0.51547-0.79175 0.63276-0.06222 0.0421-0.17906 0.12895-0.25965 0.19293-0.08059 0.064-0.31926 0.22092-0.53037 0.34873-0.21111 0.12782-0.39983 0.24811-0.41938 0.2673-0.03224 0.0317-0.63435 0.33464-1.2748 0.64148-0.43187 0.20691-1.1442 0.45052-1.7783 0.60812-0.17159 0.0427-0.34006 0.0912-0.37438 0.10786-0.17714 0.0861-1.2972 0.25752-2.0279 0.31042-0.49305 0.0357-1.3594 0.035-1.8712-2e-3zm8.2612-7.0507c0.13575-0.0377 0.34318-0.21221 0.42098-0.35418 0.04858-0.0887 0.05331-0.48127 0.06218-5.1656 7e-3 -3.7077 6.3e-5 -5.114-0.02593-5.2348-0.04048-0.18807-0.20613-0.38434-0.3888-0.46067-0.16227-0.0678-14.564-0.0678-14.726 0-0.1505 0.0629-0.34902 0.27527-0.38779 0.41487-0.02203 0.0793-0.03264 1.7652-0.03276 5.2043l-1.74e-4 5.0869 0.07903 0.15859c0.08131 0.16316 0.24276 0.30216 0.40871 0.35188 0.13602 0.0408 14.444 0.0395 14.591-1e-3zm-12.395-1.452c0.09379-0.0963 0.24072-0.23065 0.32651-0.29855 0.08579-0.0679 0.2683-0.22776 0.40557-0.35523 0.24431-0.22688 0.63907-0.57979 1.2323-1.1017 0.16301-0.14341 0.40869-0.36204 0.54596-0.48587 0.28961-0.26124 0.70804-0.63513 0.90467-0.80836l0.13684-0.12056 0.15 0.11879c0.0825 0.0653 0.21144 0.1806 0.28652 0.25613 0.07509 0.0755 0.31265 0.27783 0.52792 0.44955l0.3914 0.31223 0.20907-0.0118c0.19006-0.0107 0.22255-0.0231 0.35729-0.13581 0.08152-0.0682 0.20627-0.1673 0.27723-0.22024 0.07096-0.0529 0.24821-0.20736 0.39391-0.34317 0.14569-0.13582 0.32136-0.29066 0.39038-0.34409l0.12548-0.0971 0.12798 0.11275c0.7196 0.63396 0.97178 0.85837 1.2122 1.0787 0.15443 0.14152 0.35098 0.31714 0.43677 0.39026 0.0858 0.0731 0.2693 0.23704 0.40779 0.36427 0.13849 0.12724 0.2859 0.25423 0.32758 0.2822 0.04168 0.028 0.18107 0.15318 0.30976 0.27822 0.12869 0.12503 0.2761 0.25903 0.32758 0.29776 0.16078 0.12096 0.34234 0.28633 0.46574 0.42419l0.11868 0.13259h-10.566zm-1.405-3.9898c0-1.9747 0.01184-3.4786 0.02738-3.4786 0.01506 0 0.04663 0.0232 0.07016 0.0515 0.02353 0.0284 0.11299 0.10364 0.19881 0.16732 0.08581 0.0637 0.2543 0.21064 0.37441 0.32659s0.2901 0.26425 0.37775 0.32956c0.08765 0.0653 0.23506 0.19258 0.32758 0.28282 0.09252 0.0902 0.24543 0.22611 0.3398 0.30192 0.09437 0.0758 0.26986 0.22641 0.38998 0.33466 0.12011 0.10824 0.34474 0.30553 0.49917 0.43842s0.32992 0.28775 0.38998 0.34413c0.06006 0.0564 0.23554 0.20942 0.38997 0.34009 0.51912 0.43924 0.60753 0.52202 0.58919 0.5517-0.01004 0.0162-0.07652 0.0712-0.14773 0.12218-0.07121 0.051-0.22775 0.18738-0.34786 0.30317-0.12011 0.11578-0.35176 0.32522-0.51477 0.46542-0.16301 0.1402-0.33148 0.29295-0.37438 0.33945-0.0429 0.0465-0.14819 0.13942-0.23398 0.20649-0.08579 0.0671-0.27532 0.23193-0.42117 0.36635-0.3185 0.29352-0.88679 0.80152-1.303 1.1647-0.16704 0.14578-0.36572 0.32256-0.4415 0.39283-0.07578 0.0703-0.14949 0.12778-0.16379 0.12778-0.0143 0-0.02601-1.5654-0.02601-3.4786zm12.836 3.3324c-0.0677-0.0632-0.2003-0.18022-0.29468-0.25996-0.17478-0.14768-1.0675-0.94241-1.4351-1.2776-0.23046-0.21013-0.55316-0.49563-0.97084-0.85893-0.15782-0.13727-0.40444-0.36155-0.54806-0.49841s-0.2853-0.26158-0.31485-0.27716c-0.07138-0.0376-0.22532-0.1816-0.22532-0.21072 0-0.0127 0.20006-0.1955 0.44457-0.40623s0.57985-0.50306 0.74519-0.64963c0.77776-0.68947 0.97632-0.86251 1.0374-0.90406 0.03623-0.0246 0.18381-0.15563 0.32796-0.29108s0.33368-0.2994 0.42117-0.36434c0.0875-0.0649 0.20822-0.17012 0.26828-0.23373 0.09316-0.0987 0.66845-0.57916 0.69342-0.57915 0.0047 0 0.0085 1.5583 0.0085 3.463s-0.0078 3.463-0.0173 3.463-0.07269-0.0517-0.14039-0.11498zm-6.6591-3.1492c-0.14585-0.12919-0.31314-0.27848-0.37175-0.33175-0.05861-0.0533-0.2341-0.20636-0.38998-0.3402-0.15588-0.13385-0.38168-0.33429-0.5018-0.44543-0.12011-0.11114-0.30964-0.27462-0.42117-0.36329-0.11153-0.0887-0.2484-0.20784-0.30415-0.26482-0.05575-0.057-0.22422-0.20502-0.37438-0.32896-0.15016-0.12393-0.3733-0.32119-0.49588-0.43835s-0.23502-0.21301-0.24987-0.21301c-0.01486 0-0.14621-0.11335-0.29191-0.2519-0.14569-0.13854-0.32105-0.29398-0.38969-0.34543-0.06864-0.0514-0.25247-0.20835-0.40852-0.34867s-0.41399-0.36744-0.5732-0.50471l-0.28948-0.24958 2.7049-8e-3c1.4877-4e-3 3.9114-4e-3 5.3861 0l2.6811 8e-3 -0.31353 0.26518c-0.17244 0.14585-0.3868 0.3356-0.47634 0.42166-0.08954 0.0861-0.26108 0.23513-0.38119 0.33126-0.12011 0.0961-0.31666 0.26903-0.43677 0.38423s-0.26752 0.24226-0.32758 0.28236c-0.06006 0.0401-0.22151 0.18086-0.35878 0.3128s-0.28724 0.26361-0.33326 0.29261c-0.04602 0.029-0.1792 0.14331-0.29595 0.25403-0.11675 0.11071-0.30372 0.27577-0.41549 0.36681-0.11177 0.091-0.30149 0.25516-0.4216 0.36472-0.12011 0.10956-0.34474 0.30707-0.49917 0.43892s-0.3229 0.27917-0.37438 0.32738c-0.32556 0.30488-0.71279 0.62191-0.75802 0.62059-0.02922-8.3e-4 -0.17246-0.10726-0.31831-0.23645z" stroke-width=".031198"/></g></svg>
