<?xml version="1.0" encoding="UTF-8"?>
<!-- Created with Inkscape (http://www.inkscape.org/) -->
<svg width="16.933mm" height="16.937mm" version="1.1" viewBox="0 0 16.933 16.937" xml:space="preserve" xmlns="http://www.w3.org/2000/svg"><g transform="translate(-74.89 -82.98)"><path d="m78.177 99.751c0.0643-0.5146 0.43853-0.92916 0.96185-1.0655 0.14536-0.03783 0.67104-0.04321 4.2214-0.04321 4.3941 0 4.1985-0.0068 4.5189 0.1496 0.16007 0.07797 0.45339 0.36454 0.53316 0.5209 0.06993 0.13707 0.14498 0.40715 0.14498 0.52171v0.07882h-10.401zm2.5565-2.4632v-0.62016l-2.0266-0.0091c-1.9905-0.0089-2.0305-0.01017-2.2484-0.07144-0.63446-0.17839-1.1711-0.65963-1.4185-1.272-0.15926-0.39428-0.15515-0.2366-0.14647-5.6283l8e-3 -4.955 0.06509-0.21106c0.11742-0.3808 0.27193-0.6372 0.55455-0.92025 0.21502-0.21534 0.2977-0.27656 0.52366-0.38765 0.51883-0.25509-0.20045-0.23221 7.3013-0.23221 7.5129 0 6.8282-0.02176 7.3383 0.23317 0.21343 0.10666 0.30506 0.17519 0.51611 0.38605 0.2164 0.2162 0.27725 0.29841 0.38834 0.52469 0.25216 0.51365 0.23064-0.01738 0.23064 5.6913v5.0558l-0.06497 0.22436c-0.11166 0.38565-0.26675 0.64641-0.55529 0.93367-0.29058 0.28929-0.56587 0.45302-0.93731 0.55746-0.21791 0.06127-0.2579 0.06254-2.2484 0.07144l-2.0266 0.0091v1.2403h-5.2535zm2.8042-1.5653c0.36125-0.15457 0.38477-0.68266 0.03775-0.84734-0.1996-0.09472-0.48613-0.02672-0.59637 0.14152-0.25615 0.39093 0.13614 0.88658 0.55862 0.70582zm6.6456-1.7597c0.0632-0.03382 0.16119-0.11274 0.21777-0.17536 0.2032-0.22492 0.19159 0.07515 0.18324-4.7359-0.0071-4.0888-0.01023-4.3258-0.05831-4.4327-0.0747-0.16611-0.23637-0.31724-0.40808-0.38148-0.14876-0.05566-0.22676-0.05631-6.7576-0.05631-6.5779 0-6.6078 2.55e-4 -6.7609 0.05754-0.179 0.06698-0.35722 0.24276-0.41657 0.41088-0.05794 0.16412-0.05826 8.7556-3.27e-4 8.9196 0.06815 0.19296 0.26982 0.37774 0.48363 0.44314 0.03893 0.01191 3.0704 0.01952 6.7365 0.0169l6.6658-0.0048zm-7.546-2.3252-0.31345-0.01413 0.11923-0.40955c0.06557-0.22525 0.31286-1.0641 0.54953-1.8642 0.23667-0.80003 0.51626-1.7469 0.62133-2.1042l0.19103-0.64963 0.35612-0.0079c0.27952-0.0062 0.35347-1.12e-4 0.34381 0.02824-0.0067 0.01989-0.13926 0.46829-0.29443 0.99647-0.15517 0.52818-0.46832 1.5895-0.69589 2.3584-0.22757 0.76896-0.43281 1.4627-0.45609 1.5417-0.02329 0.07897-0.05705 0.14252-0.07503 0.14122-0.018-0.0013-0.17376-0.0087-0.34616-0.01648zm-0.95756-0.32649c-0.0466-0.01936-0.37707-0.17089-0.73436-0.33677-0.3573-0.16587-1.0627-0.49328-1.5676-0.72758-0.50488-0.2343-0.9222-0.42924-0.9274-0.43321-0.02094-0.01601-0.0069-0.61838 0.01456-0.62569 0.01273-0.0044 0.75964-0.35018 1.6598-0.76856 0.90017-0.41838 1.6437-0.75638 1.6523-0.75111 0.0086 0.0053 0.0093 0.1716 0.0015 0.36962l-0.01413 0.36003-1.2313 0.53952c-0.6772 0.29673-1.2343 0.5514-1.238 0.56593-0.0059 0.02313 0.76978 0.37357 2.0456 0.92416 0.21748 0.09386 0.40418 0.17893 0.41489 0.18906 0.02501 0.02365 0.04888 0.66894 0.02603 0.70362-0.01023 0.01552-0.05171 0.01186-0.10198-9e-3zm3.2623-0.31709c0-0.26669 0.0097-0.3714 0.0353-0.3826 0.01942-0.0085 0.59237-0.25536 1.2732-0.54863 0.68086-0.29327 1.2353-0.54507 1.2322-0.55956-0.0032-0.0145-0.57294-0.26921-1.2662-0.56604l-1.2604-0.53969-0.01413-0.35986c-0.0078-0.19792-0.0072-0.3641 0.0013-0.36929 0.0085-0.0052 0.76789 0.33511 1.6876 0.75621l1.6722 0.76564v0.63232l-0.88265 0.40413c-0.48546 0.22227-1.2258 0.56185-1.6453 0.75462-0.41943 0.19277-0.77849 0.35712-0.79791 0.36521-0.0272 0.01134-0.0353-0.0697-0.0353-0.35247z" stroke-width=".028245"/></g></svg>
