<?xml version="1.0" encoding="UTF-8"?>
<!-- Created with Inkscape (http://www.inkscape.org/) -->
<svg width="25.4mm" height="24.104mm" version="1.1" viewBox="0 0 25.4 24.104" xml:space="preserve" xmlns="http://www.w3.org/2000/svg"><g transform="translate(245.78 -30.392)"><path d="m-234.25 54.471c-0.0172-0.01777-0.3231-0.06283-0.67976-0.10012-1.4632-0.153-2.4526-0.52186-3.1145-1.1612-0.40999-0.39597-0.61199-0.77863-0.80929-1.5331-0.22017-0.84188-0.29798-1.859-0.25981-3.3962 0.0361-1.4549 0.1947-2.4546 0.54401-3.4297 0.39123-1.0921 0.77142-1.556 1.4806-1.8064 0.80031-0.28265 1.2626-0.3124 4.1369-0.26624 2.7666 0.04442 3.0864 0.02588 3.923-0.22749 1.0724-0.3248 1.8993-1.1448 2.1375-2.1198 0.0413-0.16907 0.10229-0.34216 0.13554-0.38464 0.0332-0.04248 0.0438-0.07724 0.0235-0.07724s-0.0113-0.06734 0.0199-0.14964c0.0663-0.17433 0.42291-2.667 0.4317-3.0174 8e-3 -0.30379 1.7997 0.01269 2.7287 0.48188 0.34119 0.17232 0.82626 0.48563 0.9694 0.62615 0.0442 0.04335 0.11549 0.10029 0.1585 0.12653 0.19041 0.11617 0.95802 1.0908 1.1864 1.5065 0.36598 0.66592 0.64269 1.501 0.81689 2.4653 0.0804 0.44519 0.0448 2.0053-0.0599 2.6263-0.10662 0.63208-0.41136 1.539-0.61579 1.8325-0.0628 0.09022-0.11423 0.18378-0.11423 0.20793 0 0.11057-0.54667 0.76797-0.84691 1.0185-0.38939 0.32486-0.5948 0.43747-1.1217 0.61496-0.37955 0.12786-0.47823 0.1303-5.8055 0.14378l-5.4194 0.01371-0.019 0.26263-0.019 0.26263h7.0519l-4e-3 1.1278c-5e-3 1.1638-0.0497 1.7767-0.17939 2.4366-0.0656 0.33364-0.1036 0.40108-0.30097 0.53401-0.66975 0.45108-1.5492 0.78828-2.8713 1.1009-0.69354 0.16399-3.4063 0.38127-3.5037 0.28063zm4.5111-2.025c1.0969-0.47188 1.1163-2.0421 0.0313-2.5362-0.29325-0.13355-0.81988-0.14887-1.0989-0.03196-0.51209 0.2146-0.90827 0.79818-0.90832 1.338-4e-5 0.47175 0.35252 0.97422 0.89277 1.2724 0.22354 0.12338 0.74551 0.10305 1.0831-0.04218zm-11.463-4.3509c-0.66116-0.14373-1.0138-0.26321-1.4689-0.49777-0.24572-0.12662-0.46066-0.24733-0.47765-0.26824-0.017-0.0209-0.13132-0.11281-0.25405-0.20421-0.62649-0.46656-1.216-1.2077-1.6249-2.0427-0.15614-0.31885-0.28389-0.61396-0.28389-0.65581 0-0.04184-0.0418-0.15697-0.093-0.25583-0.0511-0.09886-0.15482-0.50765-0.23044-0.90842-0.24179-1.2815-0.17028-2.8667 0.17615-3.905 0.49056-1.4703 1.2682-2.3422 2.4497-2.7465l0.47947-0.1641h10.628v-0.55616h-7.0001l0.0371-1.653c0.0388-1.7319 0.0936-2.2009 0.27335-2.3421 0.74631-0.58637 2.3842-1.1593 3.7628-1.3161 0.33526-0.03814 0.81231-0.09617 1.0601-0.12895 0.5784-0.0765 1.6484-0.0766 2.032-1.85e-4 0.16404 0.03267 0.5459 0.08994 0.84859 0.12726 0.58292 0.07187 1.571 0.38124 1.9833 0.621 0.39444 0.22935 0.76805 0.55408 0.96225 0.83634 0.23993 0.34873 0.53981 1.2619 0.61048 1.8589 0.19085 1.6125 0.20486 2.0646 0.10117 3.2637-0.11764 1.3603-0.17331 1.7151-0.386 2.4596-0.15264 0.53437-0.45094 1.2599-0.59619 1.4501-0.19834 0.25965-0.63654 0.63935-0.77897 0.67499-0.088 0.02201-0.27116 0.08835-0.40711 0.14742-0.50405 0.21903-1.2786 0.26041-4.0167 0.21462-2.7362-0.04576-3.0527-0.0273-3.8922 0.22693-1.0505 0.31815-1.7644 1.0138-2.1107 2.0565-0.057 0.1717-0.26587 0.99939-0.29454 1.1673-0.018 0.10574-0.0621 0.3313-0.0978 0.50123s-0.0932 0.57316-0.12767 0.89604c-0.0345 0.32288-0.094 0.73306-0.13219 0.91149l-0.0695 0.32443-0.34549-6e-3c-0.19003-0.0033-0.51235-0.04233-0.71627-0.08666zm5.6234-13.424c0.3682-0.20216 0.71066-0.80285 0.71066-1.2465 0-0.49957-0.41748-1.0947-0.89264-1.2725-0.38868-0.14542-0.64907-0.14854-0.98937-0.01184-0.60381 0.24254-0.89505 0.66315-0.89745 1.2961-3e-3 0.72846 0.32558 1.1466 1.0749 1.3689 0.26249 0.07788 0.72017 0.01606 0.99392-0.13425z" stroke-width=".061796"/></g></svg>
