<?xml version="1.0" encoding="UTF-8"?>
<!-- Created with Inkscape (http://www.inkscape.org/) -->
<svg width="25.4mm" height="25.498mm" version="1.1" viewBox="0 0 25.4 25.498" xml:space="preserve" xmlns="http://www.w3.org/2000/svg"><g transform="translate(-84.492 -92.468)"><path d="m102.36 117.95c-0.91043-0.0611-1.8077-0.29964-2.6731-0.71076-0.34514-0.16397-0.35212-0.16464-0.91779-0.088-2.5858 0.35021-5.285-0.17905-7.5397-1.4784-4.2459-2.4468-6.5679-7.1563-5.9333-12.034 0.07269-0.55873 0.07457-0.53913-0.08327-0.87189-0.81102-1.7098-0.94446-3.675-0.36793-5.4183 1.3626-4.1201 6.1186-6.0834 9.9509-4.1079l0.23395 0.1206 0.35969-0.05411c1.8358-0.27617 3.7806-0.11693 5.5164 0.45169 5.5828 1.8289 9.0222 7.4146 8.1587 13.25l-0.0495 0.33472 0.10285 0.20495c1.0656 2.1232 1.028 4.7149-0.0977 6.7349-1.3407 2.406-3.9592 3.8473-6.6602 3.6661zm-4.3802-5.2458c3.143-0.21424 5.0385-1.692 5.2881-4.1227 0.18306-1.7825-0.61681-3.2469-2.2031-4.0336-0.64801-0.32136-0.92194-0.39964-3.0814-0.88048-2.4218-0.53927-2.7733-0.65398-3.2282-1.0534-0.63396-0.55664-0.41471-1.6797 0.41822-2.1422 0.48419-0.26887 0.88128-0.35298 1.6685-0.35342 1.2967-9e-4 1.9994 0.28162 2.7724 1.114 0.88935 0.95764 1.1304 1.0943 1.7834 1.011 0.91995-0.11743 1.4351-0.79306 1.2607-1.6536-0.38276-1.889-3.6685-3.3268-6.7609-2.9585-3.1201 0.3716-4.8546 2.037-4.7394 4.5506 0.06931 1.5126 0.67496 2.4816 1.9871 3.179 0.61203 0.3253 0.88209 0.40757 3.4261 1.0437 2.548 0.63715 2.6131 0.65933 2.9714 1.0121 0.7989 0.78639 0.37764 2.1015-0.839 2.6192-0.9925 0.42234-2.5619 0.33839-3.466-0.18541-0.41336-0.23949-0.68345-0.49832-1.2163-1.1656-0.58894-0.7375-0.86675-0.92488-1.4265-0.96216-1.187-0.0791-1.8206 0.97404-1.324 2.2004 0.75566 1.866 3.4921 3.0003 6.7088 2.781z" stroke-width=".026983"/></g></svg>
