<?xml version="1.0" encoding="UTF-8"?>
<!-- Created with Inkscape (http://www.inkscape.org/) -->
<svg width="25.4mm" height="16.216mm" version="1.1" viewBox="0 0 25.4 16.216" xml:space="preserve" xmlns="http://www.w3.org/2000/svg"><g transform="translate(370.91 -49.504)"><path d="m-353.5 63.831c-1.0358-1.0385-1.8833-1.9011-1.8833-1.917 0-0.054 0.14234-0.0613 1.3517-0.0692 1.2091-8e-3 1.2104-8e-3 1.3517-0.0831 0.16077-0.0855 0.25636-0.1836 0.35556-0.36485 0.0674-0.12322 0.0688-0.15012 0.0688-1.336v-1.2103l-0.0778-0.15223c-0.0924-0.181-0.23957-0.31739-0.4377-0.40577-0.13916-0.0621-0.21263-0.0651-1.9208-0.0778-1.9366-0.0145-2.5855 9e-3 -2.7724 0.0983-0.16989 0.0816-0.28844 0.20784-0.39067 0.41604l-0.0905 0.18439v2.2647l0.10406 0.21135c0.16988 0.34504 0.3876 0.46315 0.85376 0.46315 0.30585 0 0.56917 0.0721 0.74053 0.20283 0.18157 0.13849 1.4609 1.4539 1.4609 1.5021 0 0.01851-0.60908 0.02474-1.6111 0.01647l-1.6111-0.01329-0.22189-0.07998c-0.39524-0.14247-0.55543-0.24484-0.8312-0.53123-0.0951-0.09875-0.18704-0.19853-0.20433-0.22172-0.13937-0.18696-0.21511-0.33468-0.30369-0.5923l-0.10268-0.29864-0.012-1.6346c-0.0129-1.7598-3e-3 -1.9239 0.14447-2.3261 0.20304-0.55488 0.71197-1.0558 1.2603-1.2406 0.37344-0.1258 0.49047-0.13006 3.3046-0.12004 2.4892 9e-3 2.7351 0.0144 2.9078 0.0652 0.87255 0.25674 1.453 0.94285 1.5556 1.8389 0.0512 0.44642 0.041 3.1595-0.0128 3.4411-0.0887 0.46342-0.25475 0.76653-0.62134 1.134-0.13507 0.1354-0.24558 0.26762-0.24558 0.29383 0 0.02621 0.51633 0.56365 1.1474 1.1943s1.1474 1.1668 1.1474 1.1915c0 0.03811-0.18959 0.04486-1.2603 0.04486h-1.2603zm-11.107 0.04697c-0.0422-0.0422-0.0494-0.16092-0.0494-0.81508 0-0.65417 7e-3 -0.77288 0.0494-0.81509 0.0434-0.0434 0.21552-0.0494 1.4156-0.0494 1.487 0 1.5071-2e-3 1.6448-0.17694 0.0624-0.0792 0.0697-0.11868 0.0595-0.3223-0.0109-0.2175-0.0181-0.23742-0.11465-0.31803-0.0706-0.0589-0.15445-0.0922-0.26638-0.10562-0.0899-0.0108-0.79995-0.02-1.578-0.0204-1.5862-9.5e-4 -1.6956-0.0128-2.0433-0.22162-0.16682-0.1002-0.55012-0.47487-0.55012-0.53774 0-0.0151-0.0374-0.0868-0.0832-0.1593-0.17951-0.28436-0.23006-0.76951-0.16943-1.6259 0.0364-0.51384 0.0384-0.52332 0.16664-0.78529 0.24649-0.50349 0.74694-0.91138 1.2805-1.0437 0.13812-0.0343 0.63801-0.0429 2.4856-0.0429 2.014 0 2.3188 6e-3 2.3596 0.0472 0.0644 0.0649 0.0664 1.5452 2e-3 1.6095-0.0324 0.0324-0.47832 0.0441-2.1533 0.0566-2.0872 0.0155-2.114 0.0165-2.2388 0.0834-0.29006 0.15535-0.31608 0.61373-0.0466 0.82071 0.16424 0.12615 0.24817 0.1333 1.5646 0.1333 1.6401 0 1.9534 0.0411 2.3487 0.30826 0.20229 0.13669 0.29802 0.23025 0.44046 0.43047 0.21013 0.2954 0.28933 0.55966 0.33419 1.1152 0.0742 0.91869-0.0732 1.4126-0.57144 1.9151-0.25579 0.25794-0.60474 0.44915-0.94805 0.51949-0.36169 0.0741-3.265 0.07431-3.3391 2.38e-4zm16.549-0.31784c-0.30925-0.05072-0.67532-0.22107-0.95548-0.44462-0.45652-0.36428-0.71672-0.85784-0.7735-1.4672-0.0161-0.1729-0.0298-1.3788-0.0303-2.6799-1e-3 -2.2807 1e-3 -2.3677 0.0585-2.4251 0.0555-0.0555 0.11103-0.0592 0.82091-0.0536 0.70717 6e-3 0.76444 0.0102 0.80491 0.0656 0.0362 0.0495 0.0436 0.44474 0.0436 2.3315 0 2.2384 1e-3 2.2745 0.0667 2.4502 0.082 0.21908 0.27944 0.41797 0.48991 0.49341 0.12867 0.0461 0.27716 0.054 1.016 0.0538 0.73251-1.2e-4 0.87607 7e-3 0.93521 0.0488 0.0689 0.0483 0.0699 0.0591 0.0699 0.81105 0 0.55083-0.0104 0.77256-0.0377 0.79983-0.0282 0.02817-0.34056 0.03664-1.2338 0.03344-0.65787-0.0024-1.2315-0.01008-1.2747-0.01717zm-18.767-1.5843c-0.74671-0.0634-1.2091-0.13603-1.8076-0.28392-1.0196-0.25194-1.6857-0.55424-2.0171-0.91537-0.24332-0.26516-0.24509-0.27233-0.25635-1.0379-8e-3 -0.52615-1e-3 -0.68373 0.0287-0.68373 0.0213 0 0.14607 0.0627 0.27726 0.13931 0.27209 0.15892 0.5493 0.28821 0.86725 0.40451 0.25875 0.0946 1.1053 0.30767 1.5089 0.3797 0.37515 0.0669 1.2555 0.17659 1.4185 0.17667 0.24939 1.2e-4 0.31515 0.0283 0.37477 0.1605 0.0304 0.0674 0.0672 0.12248 0.0819 0.12248s0.0267 0.0151 0.0267 0.0335 0.037 0.11388 0.0823 0.21219c0.19114 0.41511 0.37039 1.1346 0.31719 1.2732-0.0172 0.0448-0.0651 0.0522-0.31206 0.0486-0.16047-2e-3 -0.42615-0.0157-0.59041-0.0297zm-0.59727-2.7334c-0.82292-0.11523-1.3467-0.23365-1.9647-0.44422-0.81185-0.2766-1.2886-0.60129-1.4637-0.99694-0.0537-0.12133-0.0609-0.21269-0.0609-0.7728 0-0.34935 9e-3 -0.64397 0.0195-0.65469 0.0107-0.0107 0.0921 0.0261 0.18076 0.0819 0.23295 0.14652 0.89129 0.46151 0.96457 0.46151 0.0172 0 0.11228 0.0287 0.21126 0.0638 0.53633 0.19012 1.5202 0.38232 2.4119 0.47113 0.19019 0.019 0.35662 0.0452 0.36986 0.0583 0.0132 0.0131 3e-3 0.0659-0.0225 0.1172-0.0574 0.11512-0.15068 1.2441-0.12242 1.4822l0.0196 0.16504-0.18514-4e-3c-0.10182-2e-3 -0.26293-0.015-0.35803-0.0283zm0.67716-2.6095c-1.8011-0.13627-3.3925-0.63212-3.9224-1.2221-0.22359-0.24894-0.24674-0.35739-0.23688-1.1093l9e-3 -0.64924 0.17801 0.11707c0.82211 0.54072 2.2899 0.92282 4.0029 1.042 0.86575 0.0602 2.2608 0.0305 3.0807-0.0657 1.3324-0.15631 2.5514-0.51699 3.2463-0.96054 0.0911-0.0581 0.17682-0.10573 0.19048-0.10573 0.0136 0 0.0222 0.30768 0.0191 0.68373-5e-3 0.54326-0.0159 0.70689-0.0552 0.79646-0.0477 0.10893-0.37878 0.46882-0.43125 0.46882-0.0142 0-0.0452 0.0194-0.0688 0.0431-0.0237 0.0237-0.0919 0.0681-0.15157 0.0987-0.0597 0.0306-0.11556 0.0643-0.1242 0.0748-0.0562 0.0686-0.95108 0.38458-1.3913 0.49124-0.31529 0.0764-0.34801 0.078-1.5822 0.078-1.1439 4e-5 -1.2822 6e-3 -1.4985 0.061-0.13104 0.0335-0.29542 0.0901-0.36529 0.12574-0.13853 0.0707-0.30747 0.0767-0.89841 0.032zm0.23447-2.6588c-0.96926-0.0653-1.9608-0.23104-2.6092-0.43613-0.65708-0.20786-0.96375-0.34693-1.2889-0.5845-0.45878-0.33524-0.50297-0.44291-0.50297-1.2254 0-0.54487 3e-3 -0.57158 0.0806-0.72476 0.17674-0.34878 0.62218-0.65721 1.313-0.90912 0.68989-0.25158 1.4794-0.42461 2.2844-0.50067 0.19883-0.0188 0.48677-0.0484 0.63986-0.0658 0.46023-0.0524 2.1476-0.0148 2.7395 0.061 0.82575 0.10572 1.1903 0.17038 1.6209 0.28745 0.83276 0.22643 1.4891 0.54075 1.7969 0.86049 0.23348 0.24258 0.25618 0.33131 0.25822 1.0094 2e-3 0.5565-3e-3 0.60694-0.0683 0.73874-0.1279 0.25817-0.39654 0.49699-0.76242 0.67782-0.77125 0.38116-1.6659 0.61194-2.9239 0.75425-0.4321 0.0489-2.1393 0.0868-2.5777 0.0573z" stroke-width=".031436"/></g></svg>
