<?xml version="1.0" encoding="UTF-8"?>
<!-- Created with Inkscape (http://www.inkscape.org/) -->
<svg width="9.525mm" height="9.525mm" version="1.1" viewBox="0 0 9.525 9.525" xml:space="preserve" xmlns="http://www.w3.org/2000/svg"><g transform="translate(-52.105 -68.396)"><path d="m56.868 68.396a4.7626 4.7626 0 0 0-4.7625 4.7625 4.7626 4.7626 0 0 0 4.7625 4.7625 4.7626 4.7626 0 0 0 4.7625-4.7625 4.7626 4.7626 0 0 0-4.7625-4.7625zm-2.3402 1.6185 1.0004 3.63e-4 0.8445 1.1316c0.46441 0.62243 0.84793 1.1305 0.8525 1.129 0.0046-0.0015 0.47615-0.50832 1.048-1.1261 0.57185-0.6178 1.0473-1.1259 1.0564-1.1294 9e-3 -0.0034 0.14246-0.0046 0.29652-0.0025l0.2798 0.0037-1.2072 1.3038c-0.66398 0.71718-1.2057 1.3087-1.2039 1.3144 0.0031 0.0097 0.41963 0.56809 2.0582 2.7588 0.36506 0.48807 0.6639 0.89145 0.6639 0.8961 0 0.0046-0.44746 0.0084-0.99422 0.0084h-0.99385l-0.27908-0.37444c-0.46605-0.62508-1.552-2.0759-1.5618-2.0865-0.0051-0.0055-0.17951 0.17377-0.38737 0.39827-0.20786 0.2245-0.72237 0.78053-1.1436 1.2355l-0.76601 0.82706h-0.28816c-0.15858 0-0.28632-0.0053-0.2838-0.01163 0.0036-9e-3 1.8982-2.0603 2.4797-2.6847 0.06258-0.06719 0.11227-0.1274 0.11011-0.13372-0.0022-0.0063-0.22726-0.30956-0.50002-0.67408-0.27276-0.36452-0.84668-1.1325-1.2755-1.7064-0.4288-0.5739-0.7856-1.0513-0.7929-1.0607-0.0106-0.01369 0.18893-0.01695 0.98731-0.01671zm0.32087 0.42516c-0.24924 0-0.45314 0.0031-0.45314 0.0065 0 0.0061 0.29742 0.40461 2.285 3.0622 0.54215 0.72493 1.1596 1.5511 1.3721 1.8358l0.38628 0.51782 0.45714 3.64e-4c0.36225 4.67e-4 0.45538-0.0028 0.44732-0.01636-0.01061-0.01792-0.45976-0.61973-1.8318-2.4543-0.44899-0.60033-1.1049-1.4776-1.4579-1.9496-0.35296-0.47196-0.66673-0.89062-0.69697-0.93026l-0.05487-0.07231z" stroke-linecap="round" stroke-linejoin="round" stroke-miterlimit="55.3" stroke-width="5.4002" style="paint-order:stroke markers fill"/></g></svg>
