<?xml version="1.0" encoding="UTF-8"?>
<!-- Created with Inkscape (http://www.inkscape.org/) -->
<svg width="9.525mm" height="9.525mm" version="1.1" viewBox="0 0 9.525 9.525" xml:space="preserve" xmlns="http://www.w3.org/2000/svg"><g transform="translate(4.4805 -90.668)"><path d="m0.28197 90.668a4.7625 4.7625 0 0 0-4.7625 4.7625 4.7625 4.7625 0 0 0 4.7625 4.7625 4.7625 4.7625 0 0 0 4.7625-4.7625 4.7625 4.7625 0 0 0-4.7625-4.7625zm1.3944 2.144c0.39364 0 0.74499 0.14471 1.048 0.4315l0.035801 0.03392 0.078198-0.0179c0.25022-0.05741 0.46552-0.13629 0.70095-0.25658 0.081514-0.04162 0.14978-0.07412 0.15168-0.07223 0.00695 0.0068-0.06024 0.1651-0.10489 0.24652-0.096406 0.1758-0.25499 0.35562-0.4271 0.48426-0.058243 0.04351-0.089648 0.07395-0.075999 0.0738 0.047268-6.08e-4 0.33761-0.06279 0.44437-0.09515 0.06065-0.01836 0.16362-0.05332 0.22863-0.07757 0.065008-0.02425 0.1205-0.04157 0.12342-0.03863 0.00286 3e-3 -0.023892 0.0446-0.059668 0.09264-0.16754 0.2251-0.3573 0.42163-0.55837 0.57816l-0.098296 0.07631v0.16802c0 0.89998-0.30969 1.8452-0.84164 2.5683-0.2107 0.28642-0.52121 0.61145-0.77789 0.81401-0.57768 0.45585-1.2438 0.7328-2.0121 0.83724-0.17534 0.02376-0.74192 0.04205-0.89817 0.02887l-3.142e-4 3.16e-4c-0.67294-0.05719-1.2621-0.23991-1.819-0.56434-0.071331-0.04157-0.1297-0.07646-0.1297-0.07757 0-5.65e-4 0.13837-0.0024 0.30714-0.0024 0.34336-9.7e-5 0.47426-0.01525 0.7603-0.08762 0.36494-0.0923 0.73371-0.26557 1.0247-0.48175l0.0738-0.05463-0.057784-0.0078c-0.031929-0.0043-0.085339-0.01027-0.1184-0.01416-0.1163-0.01367-0.30159-0.07079-0.42679-0.13127-0.27458-0.13257-0.49833-0.33694-0.64819-0.59261-0.035752-0.06096-0.13365-0.28222-0.1275-0.28798 0.00201-0.0024 0.037695 0.0024 0.079453 0.0091 0.14525 0.02394 0.62773-0.01465 0.55052-0.04394-0.010441-0.0036-0.067404-0.02249-0.12656-0.04114-0.4473-0.14166-0.8206-0.52037-0.96098-0.97479-0.044734-0.1448-0.083428-0.44783-0.057156-0.44783 0.00359 0 0.039327 0.01631 0.07914 0.03643 0.13667 0.06881 0.45235 0.1495 0.54079 0.13818 0.027122-0.0043 0.01851-0.01373-0.071916-0.08605-0.47106-0.37684-0.66138-1.0394-0.46604-1.6224 0.042394-0.1265 0.10994-0.26657 0.12562-0.26066 0.00589 0.0022 0.031571 0.02989 0.057156 0.06124 0.076245 0.09331 0.35967 0.37592 0.47515 0.47389 0.66927 0.56777 1.4753 0.90822 2.3516 0.99333 0.19463 0.0189 0.17702 0.02793 0.15828-0.07883-0.022145-0.12619-0.020891-0.37289 0.00251-0.50656 0.078905-0.451 0.37567-0.8524 0.78574-1.0621 0.21421-0.1096 0.43394-0.16148 0.68148-0.16148z" stroke-linecap="round" stroke-linejoin="round" stroke-miterlimit="55.3" stroke-width="2.8089" style="paint-order:markers fill stroke"/></g></svg>
